<svg xmlns="http://www.w3.org/2000/svg" width="282.278" height="189.354" viewBox="0 0 282.278 189.354">
  <g id="c" transform="translate(0.008 0.233)">
    <path id="Path_3588" data-name="Path 3588" d="M56.518,228.923a32.482,32.482,0,0,1-32.286-35.786,32.473,32.473,0,0,1-3.454-61.7L231.814,49.956a32.472,32.472,0,0,1,28.836,57.873l-58.8,36.546,37.665-5.007a32.472,32.472,0,1,1,8.559,64.377L60.818,228.64a32.646,32.646,0,0,1-4.3.285Z" transform="translate(0 -39.803)" fill="#f3f3f3" style="isolation: isolate"/>
    <path id="Path_3589" data-name="Path 3589" d="M345.487,43.42a29,29,0,0,0-3.712.239.3.3,0,0,0,.038.6.276.276,0,0,0,.038,0q1.253-.161,2.5-.212h0c.027,0,.056,0,.085,0h0c.027,0,.056,0,.084,0h0c.019,0,.038,0,.055,0h.907a.3.3,0,0,0,0-.608h0Zm-7.286.941a.3.3,0,0,0-.077.01,29.55,29.55,0,0,0-3.53,1.17.3.3,0,0,0,.115.584.288.288,0,0,0,.113-.022,28.5,28.5,0,0,1,3.036-1.032h0l.019-.005h.005l.053-.015a.024.024,0,0,0,.01,0l.012,0a.04.04,0,0,0,.014,0,.024.024,0,0,0,.01,0l.024-.007h0l.024-.007h.007l.021-.005h.005l.217-.058a.3.3,0,0,0-.079-.6h0ZM331.332,46.9a.3.3,0,0,0-.115.022l-3.371,1.384a.3.3,0,0,0,.116.584.289.289,0,0,0,.113-.022l3.374-1.386a.3.3,0,0,0-.118-.584h0Zm-6.741,2.769a.3.3,0,0,0-.114.022l-3.371,1.384a.3.3,0,0,0,.231.562l3.371-1.384a.3.3,0,0,0-.116-.584Zm-6.743,2.769a.3.3,0,0,0-.114.022l-3.371,1.384a.3.3,0,0,0,.231.562l3.311-1.36h.009v0h0l0,0h0l.017-.007.007,0h0l.01-.005h0l0,0h0a.3.3,0,0,0-.116-.584h0ZM311.1,55.21a.3.3,0,0,0-.115.022l-3.371,1.384a.3.3,0,0,0,.116.584.3.3,0,0,0,.113-.022l1.978-.811.009,0h0l1.385-.569a.3.3,0,0,0-.114-.584h0Zm-6.743,2.769a.3.3,0,0,0-.114.022l-3.371,1.384a.3.3,0,0,0,.231.562l3.376-1.386a.3.3,0,0,0-.12-.583h0Zm-6.743,2.769a.3.3,0,0,0-.114.022l-3.371,1.384a.3.3,0,0,0,.116.584.3.3,0,0,0,.114-.022l1.474-.6h0c.022-.01.044-.019.067-.027h0l.007,0,.009,0,.029-.012.015-.007h0l1.765-.724a.3.3,0,0,0-.118-.584h0Zm-6.743,2.768a.3.3,0,0,0-.114.022l-3.371,1.384a.3.3,0,0,0,.231.562l3.371-1.384a.3.3,0,0,0-.116-.584Zm-6.743,2.769a.3.3,0,0,0-.115.022l-3.371,1.384a.3.3,0,0,0,.116.584.3.3,0,0,0,.113-.022l1.526-.627.009,0h0l0,0h.005l.005-.005h0l1.818-.748a.3.3,0,0,0-.116-.584h0Zm-6.743,2.769a.3.3,0,0,0-.114.022L273.9,70.461a.3.3,0,0,0,.231.562l3.374-1.386a.3.3,0,0,0-.118-.583h0Zm-6.741,2.768a.3.3,0,0,0-.114.022l-3.371,1.384a.3.3,0,0,0,.116.584.3.3,0,0,0,.114-.022s1.387-.569,2.382-.979l.068-.027h0l.921-.379a.3.3,0,0,0-.118-.584h0ZM263.9,74.592a.3.3,0,0,0-.115.022L260.419,76a.3.3,0,0,0,.231.562l3.371-1.384a.3.3,0,0,0-.116-.584Zm-6.743,2.769a.3.3,0,0,0-.114.022l-3.371,1.384a.3.3,0,0,0,.116.584.3.3,0,0,0,.113-.022l1.961-.806h0l.007,0,1.4-.576a.3.3,0,0,0-.114-.584h0Zm-6.743,2.768a.3.3,0,0,0-.114.022l-3.371,1.384a.3.3,0,0,0,.116.584.3.3,0,0,0,.113-.022l3.376-1.386a.3.3,0,0,0-.118-.583h0ZM243.675,82.9a.3.3,0,0,0-.114.022L240.19,84.3a.3.3,0,0,0,.231.562l3.227-1.326h0l.142-.058h0a.3.3,0,0,0-.116-.584h0Zm-6.743,2.769a.3.3,0,0,0-.114.022l-3.371,1.384a.3.3,0,0,0,.116.584.3.3,0,0,0,.114-.022l3.371-1.384a.3.3,0,0,0-.116-.584Zm-6.743,2.768a.3.3,0,0,0-.114.022L226.7,89.841a.3.3,0,0,0,.116.584.294.294,0,0,0,.113-.022l1.649-.677h0l.014-.005c.851-.349,1.708-.7,1.708-.7a.3.3,0,0,0-.114-.584h0ZM223.446,91.2a.3.3,0,0,0-.114.022l-3.371,1.384a.3.3,0,0,0,.116.584.288.288,0,0,0,.113-.022l3.376-1.386a.3.3,0,0,0-.118-.584h0ZM216.7,93.974a.3.3,0,0,0-.114.022l-3.371,1.384a.3.3,0,0,0,.231.562l3.371-1.384a.3.3,0,0,0-.116-.584Zm-6.741,2.768a.3.3,0,0,0-.114.022l-3.371,1.384a.3.3,0,0,0,.116.584.3.3,0,0,0,.114-.022l3.371-1.384a.3.3,0,0,0-.116-.584Zm-6.743,2.769a.3.3,0,0,0-.114.022l-3.371,1.384a.3.3,0,0,0,.116.584.294.294,0,0,0,.113-.022l1.372-.564.007,0,.012-.005,1.985-.815a.3.3,0,0,0-.114-.584h0Zm-6.743,2.769a.3.3,0,0,0-.114.022l-3.371,1.384a.3.3,0,0,0,.231.562l3.376-1.386a.3.3,0,0,0-.12-.583h0Zm-6.743,2.768a.3.3,0,0,0-.114.022l-3.371,1.384a.3.3,0,0,0,.116.584.3.3,0,0,0,.114-.022s.419-.171.96-.395l.014-.005.007,0h0l.005,0h.005l.007-.005.015-.007h0l.017-.007h0l.024-.01a.084.084,0,0,0,.015-.007l2.3-.945a.3.3,0,0,0-.118-.584h0Zm-6.743,2.769a.3.3,0,0,0-.114.022l-2.207.907c-.395.162-.791.335-1.177.514a.3.3,0,0,0,.126.579.3.3,0,0,0,.126-.027c.178-.082.357-.162.536-.241h0l.017-.007h0a.151.151,0,0,0,.029-.014s.005,0,.009,0l.014-.005a.061.061,0,0,0,.015-.007l.015-.007.014-.007s.007,0,.01,0a.086.086,0,0,1,.022-.009l.007,0,.019-.009.007,0,.024-.01a.008.008,0,0,0,.005,0,.086.086,0,0,1,.022-.009s0,0,0,0l.026-.01h0a.172.172,0,0,0,.026-.012h0l.248-.1h0l.053-.022h0l.026-.01h0l.094-.039h0l.05-.021h0l.058-.024h0l.067-.027h0l.036-.015h0l.019-.007h0l.009,0h0l.012-.005.014-.005h0l.017-.007h0l.034-.014h0l.005,0h.007a0,0,0,0,1,0,0l.029-.012h0l.021-.009h0l.009,0h0l.015-.007h0l0,0,.009,0h0l.009,0h0l.009,0a.008.008,0,0,0,.005,0h0l0,0h0l0,0,.009,0h0l.01,0h.007l.026-.012h0l0,0,.007,0,.022-.009h0l0,0h0s0,0,0,0h0l.005,0h0l0,0h0l.041-.019h0s0,0,0,0h0v0l.007,0,.039-.015h0l.082-.034h0l1.345-.552a.3.3,0,0,0-.116-.584h0Zm-6.61,3.169a.306.306,0,0,0-.161.046,29.233,29.233,0,0,0-3.017,2.175.3.3,0,0,0,.384.47,28.26,28.26,0,0,1,2.93-2.115h0l.024-.015h0a.3.3,0,0,0-.162-.56h0Zm-5.67,4.669a.307.307,0,0,0-.222.1,29.071,29.071,0,0,0-2.368,2.868.3.3,0,0,0,.49.359q.233-.323.477-.639h0a.181.181,0,0,1,.017-.021v0l.015-.021h0a.181.181,0,0,1,.015-.019l0-.005.014-.019s0-.005.005-.007a.061.061,0,0,0,.012-.017l.005-.007.01-.014.005-.007.012-.015s.005-.005.007-.009a.052.052,0,0,0,.009-.012l.01-.012a.036.036,0,0,0,.007-.01,17.391,17.391,0,0,1,.017-.024l.009-.01a.037.037,0,0,1,.007-.009c.005-.005.009-.012.014-.017l0-.005.017-.022v0q.769-.976,1.623-1.886a.3.3,0,0,0-.222-.511h0Zm-4.309,5.952a.3.3,0,0,0-.267.159,29.319,29.319,0,0,0-1.57,3.372.3.3,0,0,0,.173.393.312.312,0,0,0,.111.021.3.3,0,0,0,.282-.193c.041-.106.084-.212.126-.318v0l.01-.024v0l.01-.024h0l.01-.024a.008.008,0,0,1,0-.005c0-.007.005-.014.009-.022a.013.013,0,0,1,0-.007c0-.007.005-.014.009-.021a.006.006,0,0,1,0-.005c0-.005.005-.012.007-.019s0-.005,0-.009.005-.014.009-.021,0-.005,0-.009l.007-.017s0-.007,0-.01a.118.118,0,0,1,.005-.014s0-.007,0-.01l.007-.017s0-.007.005-.01l.005-.014a.061.061,0,0,1,.007-.015.024.024,0,0,1,0-.01.084.084,0,0,0,.007-.019s0-.007,0-.01l.005-.012s0-.005,0-.009a.086.086,0,0,0,.009-.022.006.006,0,0,1,0-.005l.01-.026v0c.007-.015.012-.031.019-.046h0c0-.01.009-.021.012-.031h0q.3-.707.639-1.4h0l.036-.075v0c.005-.009.009-.019.014-.027v0l.021-.043a.013.013,0,0,1,0-.007c0-.007.007-.014.01-.022a.013.013,0,0,1,0-.007.186.186,0,0,1,.01-.019s0-.005.005-.009a.043.043,0,0,1,.007-.012.023.023,0,0,1,.005-.009c0-.005.005-.012.009-.017s0-.007.005-.01l.005-.01a.158.158,0,0,0,.009-.017l.005-.01c0-.005.005-.01.007-.015a.083.083,0,0,0,.005-.012.1.1,0,0,1,.007-.014s0-.005,0-.009l.01-.019s0-.005,0-.009a.186.186,0,0,1,.01-.019.013.013,0,0,1,0-.007c0-.005.005-.012.009-.017s0,0,0-.005l.01-.021s0,0,0-.005l.01-.021s0,0,0,0l.01-.021v0l.012-.022v0c0-.007.009-.015.012-.024v0l.026-.048h0c0-.009.009-.017.012-.024h0c.084-.161.169-.319.255-.478a.305.305,0,0,0-.121-.412.3.3,0,0,0-.145-.038h0Zm-2.672,6.844a.3.3,0,0,0-.294.231,29.25,29.25,0,0,0-.668,3.659.3.3,0,0,0,.267.337l.036,0a.3.3,0,0,0,.3-.268c.026-.219.053-.436.084-.653h0c0-.009,0-.019,0-.027h0c0-.017.005-.038.009-.055v0a.168.168,0,0,1,0-.027h0c0-.017.005-.036.009-.055v0a.132.132,0,0,1,0-.026v0a.132.132,0,0,1,0-.026h0a.132.132,0,0,1,0-.026V131.5a.115.115,0,0,1,0-.024v-.005a.115.115,0,0,1,0-.024v0a.115.115,0,0,1,0-.024v-.007a.087.087,0,0,1,0-.022v-.007a.1.1,0,0,1,0-.022v-.005a.1.1,0,0,1,0-.022v-.007a.1.1,0,0,1,0-.022V131.3a.073.073,0,0,1,0-.019v-.01a.05.05,0,0,1,0-.017v-.009a.086.086,0,0,1,0-.021v-.01c0-.005,0-.01,0-.015a.038.038,0,0,1,0-.014.047.047,0,0,1,0-.015.022.022,0,0,1,0-.01.073.073,0,0,1,0-.019.033.033,0,0,1,0-.012.042.042,0,0,1,0-.014.049.049,0,0,1,0-.015.043.043,0,0,1,0-.014.033.033,0,0,1,0-.012.073.073,0,0,1,0-.019.029.029,0,0,1,0-.012.033.033,0,0,1,0-.012.061.061,0,0,1,0-.017.033.033,0,0,1,0-.012.029.029,0,0,1,0-.012.061.061,0,0,1,0-.017.025.025,0,0,1,0-.012.022.022,0,0,1,0-.01.085.085,0,0,1,0-.02v-.009a.086.086,0,0,1,0-.021.022.022,0,0,1,0-.01.033.033,0,0,1,0-.014v-.007c0-.009,0-.017,0-.024v-.007c0-.015.005-.031.009-.046v-.005a.154.154,0,0,1,.005-.027v-.005c0-.015.005-.032.009-.048h0c0-.012,0-.022.005-.032h0q.167-.933.4-1.847a.3.3,0,0,0-.22-.369.27.27,0,0,0-.073-.009h0Zm-.854,7.3h0a.3.3,0,0,0-.3.308,29.022,29.022,0,0,0,.28,3.709.3.3,0,0,0,.3.261.187.187,0,0,0,.043,0,.3.3,0,0,0,.258-.343v-.007a.047.047,0,0,0,0-.015v-.01a.086.086,0,0,0,0-.02v-.01a.058.058,0,0,0,0-.017v-.01a.073.073,0,0,0,0-.019v-.01a.086.086,0,0,0,0-.021v-.009a.064.064,0,0,0,0-.017V139.5a.1.1,0,0,0,0-.022v-.009c0-.005,0-.014,0-.019v-.009a.07.07,0,0,0,0-.019v-.007a.133.133,0,0,0,0-.024v-.007a.116.116,0,0,0,0-.022v0a.114.114,0,0,0,0-.024v-.007a.115.115,0,0,0,0-.024V139.3a.118.118,0,0,0,0-.022v-.005a.1.1,0,0,0,0-.024v-.005a.132.132,0,0,0,0-.026h0a.1.1,0,0,0,0-.024v-.005a.132.132,0,0,0,0-.026v0a.132.132,0,0,0,0-.026h0a.149.149,0,0,0,0-.027v0c0-.019-.005-.036-.007-.055h0a.149.149,0,0,0,0-.027v0c0-.019-.005-.038-.007-.055h0l-.01-.085h0c-.106-.95-.162-1.895-.174-2.836a.3.3,0,0,0-.3-.3h0Zm1.017,7.276a.334.334,0,0,0-.08.01.3.3,0,0,0-.214.372,29.253,29.253,0,0,0,1.2,3.519.305.305,0,0,0,.28.188.278.278,0,0,0,.116-.024.3.3,0,0,0,.164-.4,28.505,28.505,0,0,1-1.177-3.446.3.3,0,0,0-.292-.224h0Zm2.814,6.786a.305.305,0,0,0-.263.456c.41.714.856,1.42,1.327,2.1-.048.05-.1.1-.144.147a.3.3,0,0,0,.436.422c.029-.031.058-.06.087-.089a.037.037,0,0,0,.007-.009s0-.005.007-.007l.012-.012.005-.005.014-.014,0,0,.015-.015h0l.072-.073h0l.017-.017h0l.017-.017h0c.017-.019.036-.036.053-.055,0,0,0,0,0,0a.079.079,0,0,1,.012-.012l.007-.007.01-.01.007-.007.01-.01.007-.007.01-.01.014-.014.01-.01a.045.045,0,0,1,.01-.009l.007-.007a.045.045,0,0,1,.01-.009.037.037,0,0,1,.009-.007l.009-.009.009-.009s.007-.005.009-.009l.009-.009.009-.009.017-.017h0l-.014-.019a.03.03,0,0,0-.007-.009.045.045,0,0,0-.009-.01l-.007-.01-.007-.01-.007-.01a.038.038,0,0,0-.007-.009l-.007-.01a.03.03,0,0,0-.007-.009l-.007-.01a.037.037,0,0,0-.007-.009l-.007-.01-.005-.009a.045.045,0,0,0-.009-.01l-.005-.009a.072.072,0,0,1-.009-.012l-.005-.007s-.005-.009-.009-.012l-.005-.007s-.005-.009-.009-.012,0,0-.005-.007-.005-.009-.009-.012,0-.005-.005-.007a.06.06,0,0,1-.009-.014s0,0,0,0l-.01-.015a.005.005,0,0,0,0,0l-.051-.072h0l-.01-.015a.005.005,0,0,0,0,0,.1.1,0,0,0-.01-.014s0,0,0-.005l-.01-.014,0-.005-.01-.014s0,0,0-.005a.06.06,0,0,1-.009-.014s0,0,0-.005l-.009-.014s0-.005-.005-.007l-.009-.014s0,0,0-.005a.1.1,0,0,0-.01-.014s0,0,0-.005l-.01-.014s0,0,0-.005a.1.1,0,0,0-.01-.014l0-.005a.1.1,0,0,0-.01-.014.005.005,0,0,0,0,0l-.012-.017h0l-.063-.092a.005.005,0,0,0,0,0l-.01-.014s0,0,0-.005a.06.06,0,0,1-.009-.014s0,0,0-.007a.1.1,0,0,1-.009-.014s0-.005-.005-.007-.005-.009-.009-.012,0-.005-.005-.007a.072.072,0,0,1-.009-.012l-.005-.009s-.005-.009-.009-.012l-.005-.009s-.005-.009-.009-.012,0-.005-.005-.007a.1.1,0,0,1-.009-.014s0-.005-.005-.007-.005-.009-.009-.012,0-.005-.005-.009-.005-.009-.009-.012,0-.005-.005-.007-.005-.009-.009-.012,0-.005-.005-.007-.005-.009-.009-.012,0,0,0,0c-.01-.015-.021-.031-.031-.048,0,0,0-.005-.005-.007a.027.027,0,0,1-.007-.012l-.005-.009-.007-.01a.036.036,0,0,0-.007-.01l-.007-.01-.007-.01-.007-.01-.007-.01a.03.03,0,0,0-.007-.009l-.007-.01a.037.037,0,0,0-.005-.009.074.074,0,0,1-.007-.012l-.005-.009-.007-.012-.005-.009-.007-.012-.005-.009a.074.074,0,0,1-.007-.012l-.005-.009s-.005-.009-.009-.012,0-.005-.005-.007l-.01-.015s0,0,0-.005-.009-.012-.012-.019h0l-.039-.061a.005.005,0,0,0,0,0l-.01-.017s0,0,0-.005l-.01-.015s0,0,0-.007l-.009-.014s0,0,0-.005l-.009-.014s0,0,0-.005a.069.069,0,0,1-.009-.015s0,0,0-.005l-.01-.015,0-.005-.01-.015,0-.005-.01-.015s0,0,0,0l-.01-.017a.005.005,0,0,0,0,0l-.01-.017a.005.005,0,0,0,0,0l-.077-.123h0l-.012-.021h0c0-.007-.009-.012-.012-.019a.005.005,0,0,0,0,0l-.01-.017v0a.115.115,0,0,0-.012-.019v0c0-.007-.009-.012-.012-.019v0a.115.115,0,0,0-.012-.019v0c0-.007-.009-.012-.012-.019h0c-.043-.07-.085-.138-.126-.208h0a.18.18,0,0,0-.012-.019v0a.115.115,0,0,0-.012-.019v0c0-.007-.009-.012-.012-.019v0a.18.18,0,0,0-.012-.019h0a.18.18,0,0,0-.012-.019h0l-.125-.21a.005.005,0,0,0,0,0,.186.186,0,0,1-.01-.019v0l-.01-.017s0,0,0,0l-.01-.017a.005.005,0,0,0,0,0l-.01-.017a.006.006,0,0,0,0-.005l-.01-.017s0,0,0,0l-.01-.017a.008.008,0,0,0,0-.005l-.01-.017a.005.005,0,0,0,0,0l-.01-.019v0c-.009-.014-.017-.029-.024-.043a.3.3,0,0,0-.263-.152h0Zm-1.24,5.416a.305.305,0,0,0-.244.123,29.6,29.6,0,0,0-2.028,3.118.3.3,0,0,0,.116.413.3.3,0,0,0,.149.039.3.3,0,0,0,.265-.155,28.738,28.738,0,0,1,1.985-3.053.3.3,0,0,0-.062-.425.3.3,0,0,0-.181-.06Zm-3.606,6.4a.3.3,0,0,0-.282.19,28.959,28.959,0,0,0-1.177,3.528.3.3,0,0,0,.217.371.3.3,0,0,0,.077.01.3.3,0,0,0,.294-.226q.192-.728.422-1.44h0c0-.007.005-.015.007-.022v0c0-.007.005-.015.007-.022v0c0-.007.005-.014.007-.022v0c0-.007.005-.014.007-.022v0c0-.007.005-.015.007-.022h0l.041-.123h0c0-.007.005-.014.007-.02a.006.006,0,0,1,0-.005.083.083,0,0,1,.007-.019.01.01,0,0,1,0-.007.083.083,0,0,1,.007-.019.015.015,0,0,1,0-.009l.005-.017s0-.005,0-.009l.005-.017a.013.013,0,0,1,0-.009l.005-.017a.009.009,0,0,1,0-.009.071.071,0,0,1,.007-.017s0-.005,0-.007a.071.071,0,0,1,.007-.017.01.01,0,0,1,0-.007c.01-.029.019-.058.029-.085,0,0,0-.005,0-.009l.005-.015a.024.024,0,0,1,0-.01l.005-.015a.024.024,0,0,1,0-.01.033.033,0,0,1,.005-.014s0-.007,0-.012a.033.033,0,0,1,.005-.014s0-.007,0-.012a.033.033,0,0,1,.005-.014s0-.009,0-.012a.033.033,0,0,1,.005-.014s0-.007,0-.012a.054.054,0,0,1,.005-.015.024.024,0,0,1,0-.01l.005-.015a.013.013,0,0,1,0-.009c0-.005,0-.01.005-.017s0-.005,0-.007.009-.026.014-.039v0l.005-.017s0-.005,0-.009l.005-.015a.024.024,0,0,1,0-.01.117.117,0,0,1,.005-.014s0-.007,0-.01l.005-.015s0-.007,0-.01l.005-.015a.024.024,0,0,1,0-.01l.005-.015s0-.007,0-.01l.005-.015s0-.007,0-.01l.005-.015a.024.024,0,0,1,0-.01l.005-.015a.024.024,0,0,1,0-.01l.005-.015a.008.008,0,0,1,0-.005l.024-.065v0c0-.007.005-.012.007-.019a.01.01,0,0,1,0-.007l.007-.017a.013.013,0,0,1,0-.007.071.071,0,0,1,.007-.017.029.029,0,0,1,0-.009.071.071,0,0,1,.007-.017.029.029,0,0,1,0-.009.071.071,0,0,1,.007-.017s0-.005,0-.009a.072.072,0,0,1,.007-.017.029.029,0,0,1,0-.009l.007-.017a.013.013,0,0,1,0-.007c0-.007.005-.012.007-.019v-.005c.017-.048.036-.094.053-.142h0c0-.007.005-.015.009-.022v0c0-.007.005-.014.009-.022v0c0-.007.005-.015.009-.022v0c0-.007.005-.015.009-.022h0c.056-.147.114-.294.174-.439a.3.3,0,0,0-.282-.419h0Zm-1.874,7.1a.3.3,0,0,0-.3.265,29.278,29.278,0,0,0-.243,3.712.3.3,0,0,0,.3.3h0a.3.3,0,0,0,.3-.3,28.217,28.217,0,0,1,.237-3.639.3.3,0,0,0-.261-.338.334.334,0,0,0-.039,0h0Zm-.01,7.346a.316.316,0,0,0-.039,0,.3.3,0,0,0-.263.34c.034.27.073.545.114.815.147.953.343,1.91.583,2.839a.306.306,0,0,0,.294.229.275.275,0,0,0,.075-.01.3.3,0,0,0,.219-.369c-.067-.26-.13-.519-.19-.782h0a.121.121,0,0,1,0-.021v0c0-.005,0-.012,0-.017v0a.075.075,0,0,0,0-.017v0a.061.061,0,0,0,0-.017v0a.061.061,0,0,0,0-.017v0a.061.061,0,0,0,0-.017v0l-.015-.072v-.007a.04.04,0,0,0,0-.014v-.007a.025.025,0,0,0,0-.012.015.015,0,0,0,0-.009.032.032,0,0,0,0-.012s0-.007,0-.009a.022.022,0,0,0,0-.01.033.033,0,0,0,0-.012.013.013,0,0,0,0-.009.016.016,0,0,0,0-.012.015.015,0,0,0,0-.009.032.032,0,0,0,0-.012.015.015,0,0,0,0-.009.053.053,0,0,0,0-.014v-.007a.05.05,0,0,0,0-.015v-.007a.05.05,0,0,0,0-.015v-.005a.041.041,0,0,0,0-.015v-.005c-.009-.043-.019-.085-.027-.128v0c0-.005,0-.014,0-.019v0a.073.073,0,0,0,0-.019v0c0-.007,0-.012,0-.019h0c0-.007,0-.014,0-.02h0c-.079-.384-.149-.771-.212-1.162h0a.086.086,0,0,0,0-.02v0a.061.061,0,0,0,0-.019v0a.051.051,0,0,0,0-.017v-.005a.051.051,0,0,0,0-.017v-.005a.06.06,0,0,0,0-.017v-.005a.031.031,0,0,0,0-.017v-.005a.047.047,0,0,0,0-.015v-.007a.058.058,0,0,0,0-.017v-.005a.1.1,0,0,0,0-.022h0c0-.009,0-.017,0-.027v-.005a.1.1,0,0,0,0-.022v-.005a.1.1,0,0,0,0-.022v0a.115.115,0,0,0,0-.024v0c0-.009,0-.017,0-.026h0c-.022-.147-.043-.294-.063-.441v0a.086.086,0,0,0,0-.021v-.024a.064.064,0,0,0,0-.017v-.007c-.007-.05-.014-.1-.019-.149a.3.3,0,0,0-.3-.263h0Zm1.831,7.116a.294.294,0,0,0-.113.022.3.3,0,0,0-.169.395,29.061,29.061,0,0,0,1.6,3.36.3.3,0,0,0,.53-.294c-.123-.222-.244-.446-.362-.673h0l-.026-.05h0l-.038-.073v0c-.009-.015-.017-.032-.024-.048v0c-.009-.015-.017-.032-.024-.048v0c0-.007-.009-.015-.012-.024h0c0-.009-.009-.017-.012-.024v0l-.01-.022a.005.005,0,0,0,0,0c0-.009-.009-.015-.012-.024v0c0-.007-.007-.014-.01-.022a.008.008,0,0,0,0-.005c-.009-.015-.015-.031-.024-.046a.006.006,0,0,0,0-.005l-.01-.019a.008.008,0,0,0,0-.005.141.141,0,0,0-.012-.022.009.009,0,0,0,0-.005.063.063,0,0,1-.009-.019s0,0,0-.007a.141.141,0,0,0-.012-.022v0l-.01-.021a.013.013,0,0,0,0-.007l-.01-.021v0l-.01-.022a.013.013,0,0,0,0-.007c0-.005-.005-.012-.009-.017s0,0,0-.005-.007-.014-.01-.022a.013.013,0,0,0,0-.007.159.159,0,0,1-.009-.017s0,0,0-.007l-.01-.022s0,0,0-.005a.161.161,0,0,0-.009-.017s0-.005,0-.009-.005-.012-.009-.017,0-.005,0-.009a.2.2,0,0,1-.009-.019s0-.005,0-.009-.005-.01-.007-.015,0-.005,0-.009l-.01-.021a.013.013,0,0,0,0-.007c0-.005-.005-.01-.007-.015s0-.005,0-.009l-.01-.021a.013.013,0,0,0,0-.007c0-.005-.005-.01-.007-.015s0-.007-.005-.01-.005-.01-.007-.015a.051.051,0,0,0-.007-.014.1.1,0,0,0-.007-.014s0-.007-.005-.01a.028.028,0,0,0-.007-.012s0-.007-.005-.01a.092.092,0,0,1-.009-.019s0-.007-.005-.01,0-.007-.005-.012,0-.007-.005-.01l-.009-.019-.005-.01-.005-.012s0-.007-.005-.01a.051.051,0,0,0-.007-.014c0-.005-.005-.01-.007-.015l-.005-.012a.083.083,0,0,1-.005-.012l-.005-.01a.18.18,0,0,1-.007-.017.051.051,0,0,0-.007-.014.083.083,0,0,1-.005-.012.019.019,0,0,0-.005-.01l-.005-.012c0-.005-.005-.01-.007-.015s-.005-.01-.007-.015l-.005-.01-.005-.012a.083.083,0,0,1-.005-.012.166.166,0,0,1-.009-.019s0-.007-.005-.01l-.005-.014s0-.007,0-.009l-.01-.022s0-.005,0-.009a.051.051,0,0,0-.007-.014s0-.007,0-.009l-.005-.012a.036.036,0,0,0-.005-.012l-.009-.019s0-.005,0-.009a.051.051,0,0,0-.007-.014.009.009,0,0,0,0-.007c0-.009-.007-.017-.01-.024s0-.005,0-.009a.051.051,0,0,0-.007-.014.029.029,0,0,0,0-.009.172.172,0,0,0-.012-.026.024.024,0,0,0,0-.007.034.034,0,0,0-.007-.014.024.024,0,0,0,0-.007c-.007-.015-.014-.031-.021-.048a.013.013,0,0,0,0-.007c0-.005-.005-.01-.007-.015v0a.185.185,0,0,1-.014-.032v0c0-.005-.005-.01-.007-.015a.008.008,0,0,0,0-.005c-.007-.017-.015-.032-.022-.05v0c-.007-.017-.015-.034-.022-.051h0c-.01-.026-.02-.05-.031-.073h0l-.024-.055h0c-.009-.019-.015-.038-.024-.055h0c-.092-.215-.181-.431-.267-.647a.3.3,0,0,0-.282-.191h0Zm3.572,6.42a.291.291,0,0,0-.179.06.3.3,0,0,0-.063.425,29.275,29.275,0,0,0,2.4,2.845.3.3,0,0,0,.429.01.3.3,0,0,0,.009-.429,28.612,28.612,0,0,1-2.347-2.785.305.305,0,0,0-.244-.123h0Zm5.083,5.306a.3.3,0,0,0-.191.54,29.419,29.419,0,0,0,3.034,2.151.3.3,0,0,0,.417-.1.3.3,0,0,0-.1-.417q-.692-.428-1.358-.892h0l-.046-.032h0l-.046-.032h0a.423.423,0,0,1-.044-.032h0a.421.421,0,0,1-.044-.032h0l-.022-.015h0a.2.2,0,0,1-.022-.017h0l-.022-.015h0l-.022-.015h0l-.022-.015h0l-.044-.032,0,0-.044-.032h0l-.044-.032h0l-.044-.032h0l-.044-.032,0,0-.044-.032h0l-.044-.032h0c-.337-.249-.666-.5-.993-.767a.306.306,0,0,0-.19-.067h0Zm6.251,3.859a.3.3,0,0,0-.126.579,29.567,29.567,0,0,0,3.478,1.319.32.32,0,0,0,.089.014.3.3,0,0,0,.089-.595c-.214-.067-.427-.135-.639-.2h0l-.055-.019h0l-.055-.019h0l-.055-.019h0l-.017-.005h0l-.051-.017h0l-.05-.017s-.005,0-.007,0l-.05-.017s-.005,0-.005,0l-.015-.005h-.005l-.029-.01a.006.006,0,0,1-.005,0l-.015-.005h0l-.032-.012h-.005l-.015-.005a.006.006,0,0,1-.005,0l-.031-.01h0l-.015-.005h0l-.051-.019h0l-.051-.019h0l-.053-.019h0q-1.051-.382-2.064-.842a.3.3,0,0,0-.125-.027h0Zm7.022,2.159a.3.3,0,0,0-.051.6,29.206,29.206,0,0,0,3.7.393h.012a.3.3,0,0,0,.012-.607c-.36-.015-.718-.036-1.075-.065h0c-.094-.007-.186-.015-.278-.024h0l-.06-.005h0q-1.115-.1-2.207-.29a.261.261,0,0,0-.051-.005h0Zm10.971-.188a.21.21,0,0,0-.046,0l-1.673.258c-.009,0-.019,0-.027,0h-.005c-.009,0-.017,0-.026,0h-.005c-.009,0-.017,0-.026,0h-.005c-.009,0-.019,0-.027,0h0c-.009,0-.019,0-.027,0h0c-.009,0-.017,0-.026,0H192.8c-.009,0-.017,0-.027,0h0l-.058.009h0c-.01,0-.019,0-.029,0h0c-.01,0-.019,0-.029,0h0q-.8.115-1.608.185a.3.3,0,0,0,.029.606h.026c.658-.056,1.324-.137,1.98-.237l1.673-.258a.3.3,0,0,0-.044-.6h0Zm7.2-1.114a.21.21,0,0,0-.046,0l-.762.118h-.019s0,0-.005,0h0l-2.815.436a.3.3,0,0,0,.044.6.21.21,0,0,0,.046,0l3.6-.557a.3.3,0,0,0-.044-.6h0Zm7.2-1.114a.21.21,0,0,0-.046,0l-.231.036h-.012a.03.03,0,0,0-.01,0H208.8l-3.333.516a.3.3,0,0,0,.044.6.21.21,0,0,0,.046,0l3.6-.557a.3.3,0,0,0-.044-.6h0Zm7.2-1.112a.21.21,0,0,0-.046,0l-.976.15h-.005l-.01,0-2.614.4a.3.3,0,0,0,.048.6.21.21,0,0,0,.046,0l3.6-.557a.3.3,0,0,0-.044-.6h0Zm7.2-1.114a.21.21,0,0,0-.046,0l-1.233.191h-.024s-.005,0-.007,0h-.027l-2.313.357a.3.3,0,0,0,.048.6.21.21,0,0,0,.046,0l3.6-.557a.3.3,0,0,0-.044-.6h0Zm7.2-1.114a.21.21,0,0,0-.046,0l-2.026.313h-.015l-.017,0-1.546.239a.3.3,0,0,0,.048.6.21.21,0,0,0,.046,0l3.6-.557a.3.3,0,0,0-.044-.6h0Zm7.2-1.112a.21.21,0,0,0-.046,0l-2.716.42h-.017l-.032.005h0l-.835.13a.3.3,0,0,0,.046.6.21.21,0,0,0,.046,0l3.6-.557a.3.3,0,0,0-.044-.6h0Zm7.2-1.114a.2.2,0,0,0-.044,0l-3.606.557a.3.3,0,0,0,.046.6.21.21,0,0,0,.046,0l3.6-.557a.3.3,0,0,0-.044-.6h0Zm7.2-1.114a.2.2,0,0,0-.044,0l-2.942.454h-.012l-.651.1a.3.3,0,0,0,.044.6.21.21,0,0,0,.046,0l3.6-.557a.3.3,0,0,0-.044-.6h0Zm7.2-1.114a.2.2,0,0,0-.044,0l-2.279.352h-.021l-1.3.2a.3.3,0,0,0,.046.6.21.21,0,0,0,.046,0l3.6-.557a.3.3,0,0,0-.044-.6h0Zm7.2-1.112a.21.21,0,0,0-.046,0l-1.843.285h0l-.02,0h0l-.017,0h-.019l-1.7.263a.3.3,0,0,0,.044.6.21.21,0,0,0,.046,0l3.6-.557a.3.3,0,0,0-.044-.6h0Zm7.2-1.114a.21.21,0,0,0-.046,0l-1.042.161-2.561.4a.3.3,0,0,0,.044.6.21.21,0,0,0,.046,0l3.6-.557a.3.3,0,0,0-.046-.6h0Zm7.2-1.114a.21.21,0,0,0-.046,0l-3.6.557a.3.3,0,0,0,.044.6.21.21,0,0,0,.046,0l3.6-.557a.3.3,0,0,0-.044-.6Zm7.2-1.112a.21.21,0,0,0-.046,0l-.473.073h-.012l0,0h-.009l-.01,0-3.1.478a.3.3,0,0,0,.048.6.21.21,0,0,0,.046,0l3.6-.557a.3.3,0,0,0-.044-.6Zm7.2-1.114a.21.21,0,0,0-.046,0l-1.727.267-1.878.29a.3.3,0,0,0,.048.6.21.21,0,0,0,.046,0l3.6-.557a.3.3,0,0,0-.044-.6h0Zm7.2-1.114a.208.208,0,0,0-.046,0l-1.942.3h0a.192.192,0,0,0-.031.005l-1.63.251a.3.3,0,0,0,.048.6.21.21,0,0,0,.046,0l3.6-.557a.3.3,0,0,0-.044-.6h0Zm7.2-1.114a.208.208,0,0,0-.046,0l-3.019.466h-.007l-.017,0h-.009l0,0h-.014v0l-.531.082a.3.3,0,0,0,.046.6.21.21,0,0,0,.046,0l3.6-.557a.3.3,0,0,0-.044-.6h0Zm7.2-1.112a.2.2,0,0,0-.044,0l-3.6.557a.3.3,0,0,0,.046.6.21.21,0,0,0,.046,0l3.6-.557a.3.3,0,0,0-.044-.6Zm7.2-1.114a.2.2,0,0,0-.044,0l-3.41.528H320.9a.034.034,0,0,1-.01,0h0l-.022,0h-.007a.008.008,0,0,0-.005,0h-.005l-.012,0h0a.03.03,0,0,0-.01,0h0l-.1.015a.3.3,0,0,0,.044.6.21.21,0,0,0,.046,0l3.6-.557a.3.3,0,0,0-.044-.6h0Zm7.2-1.114a.2.2,0,0,0-.044,0l-2.139.33h0l-.072.01-1.394.215a.3.3,0,0,0,.044.6.208.208,0,0,0,.046,0l3.6-.557a.3.3,0,0,0-.044-.6h0Zm7.2-1.114a.21.21,0,0,0-.046,0l-1.14.176h-.005l-.073.012H337.5c-1.042.162-2.366.366-2.366.366a.3.3,0,0,0,.044.6.21.21,0,0,0,.046,0l3.6-.557a.3.3,0,0,0-.044-.6h0Zm7.2-1.112a.21.21,0,0,0-.046,0l-.8.123h-.014l-2.788.432a.3.3,0,0,0,.044.6.21.21,0,0,0,.046,0l3.6-.557a.3.3,0,0,0-.044-.6h0Zm7.2-1.114a.21.21,0,0,0-.046,0l-.26.039h-.012v0h-.01l0,0h-.015c-.864.137-3.3.513-3.3.513a.3.3,0,0,0,.044.6.21.21,0,0,0,.046,0l3.6-.557a.3.3,0,0,0-.044-.6h0Zm7.2-1.114a.21.21,0,0,0-.046,0s-.393.062-.921.142h0l-.015,0h-.009l-.036.005h0l-2.621.4a.3.3,0,0,0,.048.6.21.21,0,0,0,.046,0l3.6-.557a.3.3,0,0,0-.044-.6h0Zm7.2-1.112a.21.21,0,0,0-.046,0l-1.2.186h-.012l-.007,0-2.382.367a.3.3,0,0,0,.048.6.21.21,0,0,0,.046,0l3.6-.557a.3.3,0,0,0-.044-.6h0Zm7.2-1.114a.21.21,0,0,0-.046,0l-1.982.306h-.005l-.007,0h-.015s0,0-.005,0l-.039.007h0l-1.55.239a.3.3,0,0,0,.048.6.21.21,0,0,0,.046,0l3.6-.557a.3.3,0,0,0-.044-.6h0ZM382,171.8a.21.21,0,0,0-.046,0l-2.677.413h-.019l-.907.14a.3.3,0,0,0,.046.6.21.21,0,0,0,.046,0l3.6-.557a.3.3,0,0,0-.044-.6h0Zm7.2-1.114a.2.2,0,0,0-.044,0l-3.606.557a.3.3,0,0,0,.046.6.21.21,0,0,0,.046,0l3.6-.557a.3.3,0,0,0-.044-.6h0Zm7.09-1.9a.3.3,0,0,0-.113.022c-.383.157-.772.308-1.163.448h0l-.08.029h0l-.079.027h0l-.053.019h0a.15.15,0,0,1-.026.009h0l-.053.019h0l-.024.009h0l-.051.019h0l-.053.019h0l-.026.009h0l-.026.009h0l-.026.009h0l-.022.007h-.005l-.051.017h0l-.022.007h0l-.051.017h0l-.024.009h0l-.026.009h0l-.024.009h-.005l-.024.009h0l-.026.009h0l-.022.007h0c-.017.005-.034.01-.051.017h-.005l-.021.007a.006.006,0,0,0-.005,0l-.05.015a.01.01,0,0,0-.007,0l-.021.007h-.005l-.05.015a.006.006,0,0,0-.005,0l-.021.007h0l-.026.009h0l-.022.007-.007,0-.022.007h0l-.026.009h-.005l-.021.007a.006.006,0,0,0-.005,0l-.024.007h0l-.026.009-.007,0-.019.005a.01.01,0,0,0-.007,0l-.024.007h0l-.024.007h-.007l-.019.009a.01.01,0,0,0-.007,0l-.024.007-.007,0-.019.005a.01.01,0,0,0-.007,0l-.019.005a.01.01,0,0,0-.007,0l-.024.007a.01.01,0,0,0-.007,0l-.017.005a.013.013,0,0,0-.009,0l-.019.005a.006.006,0,0,0-.005,0l-.024.007a.013.013,0,0,0-.009,0,.054.054,0,0,0-.015.005.024.024,0,0,0-.01,0,.065.065,0,0,0-.017.005.04.04,0,0,0-.014,0,.065.065,0,0,0-.017.005.024.024,0,0,0-.01,0,.053.053,0,0,0-.015.005.024.024,0,0,0-.01,0l-.019.005c-.005,0-.009,0-.014,0s-.009,0-.014,0l-.012,0-.012,0-.012,0a10.9,10.9,0,0,0-.034.01.024.024,0,0,0-.01,0c-.005,0-.009,0-.014,0a.024.024,0,0,0-.01,0l-.029.009h-.005c-.005,0-.01,0-.015,0l-.009,0c-.005,0-.01,0-.015,0a.015.015,0,0,0-.009,0l-.029.009h-.005a.054.054,0,0,0-.015.005.01.01,0,0,0-.007,0,.054.054,0,0,0-.015.005s-.005,0-.007,0l-.032.009h-.005a.065.065,0,0,0-.017.005h-.005l-.056.015h0a.077.077,0,0,0-.019.005h0l-.06.015h0l-.094.026a.3.3,0,0,0,.079.6.31.31,0,0,0,.079-.01,29.25,29.25,0,0,0,3.524-1.187.3.3,0,0,0-.116-.584h0Zm6.384-3.634a.306.306,0,0,0-.183.061c-.026.021-.053.039-.079.06h0l-.046.036,0,0-.014.01s0,0-.007.005l-.021.015a.03.03,0,0,0-.009.007l-.01.009a.036.036,0,0,0-.009.007l-.01.007-.014.01-.012.009-.014.01a.03.03,0,0,0-.009.007l-.014.01s-.005,0-.007.005l-.019.014-.005,0a.148.148,0,0,1-.017.012s0,0-.005,0l-.041.031-.005,0-.019.014,0,0-.022.015h0l-.021.015h0c-.015.01-.031.022-.044.032h0c-.391.282-.791.555-1.2.817h0q-.671.433-1.368.83a.3.3,0,0,0,.154.567.319.319,0,0,0,.15-.039,28.983,28.983,0,0,0,3.108-2.043.3.3,0,0,0-.183-.547h0Zm5.262-5.129a.307.307,0,0,0-.237.113,28.418,28.418,0,0,1-2.445,2.706.3.3,0,0,0,.425.434,29.356,29.356,0,0,0,2.493-2.761.305.305,0,0,0-.237-.494h0Zm3.8-6.285a.3.3,0,0,0-.278.181q-.343.777-.731,1.529h0l-.065.126h0l-.027.053h0c-.012.026-.024.048-.036.072v0l-.026.05a.005.005,0,0,1,0,0l-.026.05,0,0c0,.005-.005.01-.009.015s0,0,0,.005-.017.031-.024.046,0,.005,0,.007a.1.1,0,0,1-.007.014s0,0,0,0l-.015.029s0,0,0,.005-.005.009-.007.014,0,.005,0,.007l-.015.027s0,0,0,0-.005.009-.007.014,0,.005-.005.009l-.007.012-.005.01a.132.132,0,0,1-.012.021s0,.005-.005.009l-.007.012a.014.014,0,0,1-.005.009l-.01.019-.007.012-.007.012s0,.005-.005.009l-.007.012a.014.014,0,0,1-.005.009l-.012.021a.015.015,0,0,1-.005.009l-.007.012s0,.005-.005.009l-.012.02-.005.009-.007.012s0,.005-.005.009-.005.009-.007.014,0,.005,0,.007l-.012.022s0,.007-.005.01l-.007.012a.014.014,0,0,1-.005.009c0,.007-.009.014-.012.022s0,.005-.005.009-.005.009-.007.014,0,.005-.005.009l-.007.012-.007.012-.01.017-.005.01-.007.012s0,.007-.005.01a.127.127,0,0,1-.012.02.057.057,0,0,0-.005.01l-.007.012s0,.005-.005.009l-.007.012s0,.005-.005.009a.245.245,0,0,0-.012.022.023.023,0,0,1-.005.009c0,.005-.005.009-.007.014s0,.005-.005.009l-.012.021a.015.015,0,0,1-.005.009l-.007.012s0,.005-.005.009l-.026.043s0,.005,0,.007-.005.009-.007.014a.013.013,0,0,1,0,.007l-.015.026s0,0,0,.005l-.009.014,0,.005-.027.046,0,.005c0,.005-.005.01-.009.015h0l-.019.034v0c0,.005-.005.01-.009.015l0,.005-.027.048,0,0c-.046.077-.091.154-.137.229a.3.3,0,0,0,.1.417.313.313,0,0,0,.157.044.3.3,0,0,0,.26-.147,29.326,29.326,0,0,0,1.719-3.3.3.3,0,0,0-.155-.4.311.311,0,0,0-.123-.026h0Zm2.089-7.044a.3.3,0,0,0-.3.255c-.06.372-.128.743-.2,1.112v0c0,.019-.009.039-.012.058h0s0,.012,0,.019v.005l-.01.053v.007a.05.05,0,0,1,0,.015.015.015,0,0,1,0,.009.2.2,0,0,1-.007.031v.005a.05.05,0,0,1,0,.015.019.019,0,0,1,0,.009.05.05,0,0,1,0,.015.022.022,0,0,1,0,.01.135.135,0,0,1-.005.022.053.053,0,0,1,0,.014.029.029,0,0,1,0,.012.04.04,0,0,1,0,.014.022.022,0,0,1,0,.01.1.1,0,0,1-.005.022.013.013,0,0,1,0,.009.05.05,0,0,1,0,.015.022.022,0,0,1,0,.01c0,.005,0,.012,0,.019v.007a.12.12,0,0,1-.005.024.015.015,0,0,1,0,.009c0,.005,0,.012,0,.017v.009a.12.12,0,0,1-.005.024h0a.12.12,0,0,1-.005.024v.007a.1.1,0,0,1-.005.022v0l-.005.027h0l-.005.024v0c0,.019-.009.036-.012.055h0a.16.16,0,0,1-.007.027h0q-.2.889-.461,1.758a.3.3,0,0,0,.583.171,28.943,28.943,0,0,0,.827-3.627.3.3,0,0,0-.251-.349.242.242,0,0,0-.05,0h0Zm.241-7.344h-.029a.3.3,0,0,0-.273.331c0,.014,0,.029,0,.043v.026a.105.105,0,0,0,0,.024v.005a.105.105,0,0,0,0,.024v.005c.026.277.046.555.063.834v0a.166.166,0,0,0,0,.029h0v.518h0c0,.1.009.207.012.311h0c0,.027,0,.056,0,.082h0q.023.851,0,1.691h0v.043a.3.3,0,0,0,.294.313h.01a.305.305,0,0,0,.3-.294c.029-.9.017-1.806-.038-2.7-.021-.337-.046-.678-.079-1.013a.3.3,0,0,0-.3-.275h0Zm-1.613-7.167a.281.281,0,0,0-.1.019.3.3,0,0,0-.181.39c.046.125.089.248.133.372h0c.007.017.012.034.019.053v0c0,.009.005.015.009.024h0c.005.017.012.034.017.051v0a.134.134,0,0,0,.009.024h0c0,.009.005.017.009.026v0a.111.111,0,0,1,.007.022v.005c.005.017.01.032.017.05a.006.006,0,0,0,0,.005c0,.007.005.014.007.021a.006.006,0,0,0,0,.005c0,.009.005.017.009.024v0c0,.007.005.014.007.022a.01.01,0,0,0,0,.007.13.13,0,0,0,.007.019.01.01,0,0,0,0,.007c0,.009.005.015.009.024a.01.01,0,0,0,0,.007l.005.017s0,.005,0,.009l.005.017a.01.01,0,0,0,0,.007c0,.007.005.015.007.022a.024.024,0,0,0,0,.01c0,.005,0,.009.005.014a.024.024,0,0,0,0,.01.065.065,0,0,0,.005.017.033.033,0,0,0,.005.014.054.054,0,0,0,.005.015.044.044,0,0,0,0,.012s0,.009,0,.012a.032.032,0,0,0,0,.012.065.065,0,0,0,.005.017.054.054,0,0,0,.005.015s0,.009,0,.012,0,.009,0,.012a.024.024,0,0,0,0,.01c0,.007.005.015.007.022a.024.024,0,0,0,0,.01c0,.005,0,.009.005.014s0,.005,0,.009a.033.033,0,0,0,.005.014.009.009,0,0,0,0,.009c0,.009.005.019.009.027s0,.005,0,.007a.054.054,0,0,0,.005.015s0,.005,0,.007c.005.017.012.036.017.053v0l.005.017v.005c.005.019.012.036.017.055v0l.005.019h0c.005.02.012.039.017.058v0c.009.026.015.051.024.079h0q.3,1,.536,2.031a.3.3,0,0,0,.3.237.294.294,0,0,0,.067-.007.3.3,0,0,0,.229-.362,28.955,28.955,0,0,0-1.047-3.569.3.3,0,0,0-.285-.2h0Zm-3.376-6.524a.3.3,0,0,0-.173.055.3.3,0,0,0-.077.422q.787,1.138,1.464,2.354h0c.01.019.021.036.029.053h0l.01.017h0c.01.017.019.034.029.051a.005.005,0,0,0,0,0c.009.017.017.032.027.05a.008.008,0,0,0,0,.005c0,.005.005.01.009.015s0,0,0,.005l.015.029s0,0,0,0,.005.009.007.014a.009.009,0,0,0,0,.007c0,.005.005.009.007.014s0,0,0,.007l.014.024s0,.005.005.009l.007.012s0,.007.005.01l.01.019a.043.043,0,0,0,.007.012l.005.01.007.012s0,.007.005.01l.01.021s0,.005,0,.007a.07.07,0,0,0,.009.015s0,.005.005.009a.08.08,0,0,1,.009.017s0,0,0,.005l.012.022a.013.013,0,0,0,0,.007.08.08,0,0,1,.009.017s0,0,0,.007l.012.022v0l.01.021s0,0,0,.005.017.031.024.046v0l.012.022h0c.009.017.017.034.026.05h0c.014.026.026.051.039.077a.3.3,0,1,0,.54-.28,29.292,29.292,0,0,0-1.917-3.188.3.3,0,0,0-.249-.132h0Zm-4.913-5.464a.3.3,0,0,0-.2.533q.571.495,1.119,1.017h0l.041.039h0l.019.019,0,0c.012.012.026.024.038.038l0,0,.015.015,0,0,.017.017.005.005.012.012.007.005a.161.161,0,0,1,.017.017l.007.007.01.01.009.009.01.01.014.014.009.009.01.01.007.007.036.036.005.005.012.012,0,0,.026.026h0a.1.1,0,0,0,.014.014h0q.582.577,1.129,1.186a.3.3,0,1,0,.451-.407,29.168,29.168,0,0,0-2.658-2.6.3.3,0,0,0-.2-.073h0Zm-6.128-4.051a.3.3,0,0,0-.137.576l.333.166h0l.024.012h0l.024.012h0a.144.144,0,0,1,.022.012.008.008,0,0,1,.005,0l.022.012h0l.022.012s0,0,.005,0a.093.093,0,0,0,.019.009s0,0,.005,0l.022.012.007,0,.015.009s.005,0,.009.005l.017.009s.005,0,.009.005l.017.009.01.005.01.005a.043.043,0,0,1,.012.007l.014.007.017.009s.005,0,.009.005l.014.007.007,0,.027.014s0,0,0,0l.015.009.005,0a.462.462,0,0,1,.05.027h0l.072.039h0q.907.484,1.773,1.03h0l.048.031s0,0,.005,0l.014.009s0,0,.005,0l.024.015s.005,0,.007.005a.074.074,0,0,0,.012.007l.01.007.01.007.015.01.01.007.015.01s.005,0,.007.005a.061.061,0,0,1,.017.012l0,0,.022.014,0,0,.021.014h0l.046.031h0l.239.155a.3.3,0,0,0,.419-.087.3.3,0,0,0-.085-.42,29.168,29.168,0,0,0-3.227-1.85.31.31,0,0,0-.133-.031h0Zm-6.955-2.37a.3.3,0,0,0-.063.6q.971.2,1.92.46h0l.08.022h0l.053.015h0l.022.007h0a.144.144,0,0,0,.026.007h0l.024.007h.005l.021.005h.005l.024.007h.005l.019.005a.015.015,0,0,1,.009,0l.019.005h.005l.024.007s.005,0,.009,0a.053.053,0,0,1,.015.005.025.025,0,0,1,.01,0l.019.005c.005,0,.009,0,.014,0l.014,0,.012,0,.012,0a.04.04,0,0,1,.014,0s.005,0,.009,0l.026.007.009,0a.053.053,0,0,1,.015.005l.007,0,.051.015h.005l.075.022h0q.469.144.929.3a.324.324,0,0,0,.1.017.3.3,0,0,0,.1-.593,29.241,29.241,0,0,0-3.591-.97.377.377,0,0,0-.062-.007h0Zm-7.3-.646a.3.3,0,0,0-.014.608l2.53.087h.161a.448.448,0,0,1,.048,0h.039c.022,0,.043,0,.065,0h.022c.022,0,.043,0,.063,0h.227a.329.329,0,0,1,.041,0h.043c.135.009.27.017.4.027h.022a.3.3,0,0,0,.022-.606c-.376-.027-.759-.048-1.138-.062l-2.528-.087h-.01Zm-7.285-.251a.3.3,0,0,0-.01.608l2.848.1h.056l.738.026h.01a.3.3,0,0,0,.01-.608l-3.642-.125h-.01Zm-7.286-.249a.3.3,0,0,0-.01.608l.253.009h.032l3.359.114h.009a.3.3,0,0,0,.01-.608l-3.642-.125h-.01Zm-7.285-.249a.3.3,0,0,0-.014.608l1.546.053h.046l2.05.07h.01a.3.3,0,0,0,.01-.608l-3.642-.125h-.01Zm-7.285-.249a.3.3,0,0,0-.01.608l3.642.125h.01a.3.3,0,0,0,.01-.608l-3.642-.125Zm-7.285-.249a.3.3,0,0,0-.01.608l1.833.063h.073l1.736.06H351a.3.3,0,0,0,.01-.608l-3.642-.125h-.01Zm-7.285-.251a.3.3,0,0,0-.012.608l3.646.125h.007a.3.3,0,0,0,.01-.608l-3.642-.125h-.01Zm-7.285-.249a.3.3,0,0,0-.014.608l2.159.073h.041a.117.117,0,0,1,.021,0h0l1.423.05h.01a.3.3,0,0,0,.01-.608l-3.642-.125h-.01Zm-6-.205-1.353.555a.336.336,0,0,0,.06.009l3.34.114h.144v0l.157.005h.01a.3.3,0,0,0,.01-.608l-2.37-.082h0Zm5.424-2.2a.3.3,0,0,0-.114.022l-3.371,1.384a.3.3,0,0,0,.114.584.3.3,0,0,0,.114-.022l3.371-1.384a.3.3,0,0,0-.116-.584h0Zm6.743-2.768a.294.294,0,0,0-.113.022l-3.374,1.386a.3.3,0,0,0,.231.562l3.371-1.384a.3.3,0,0,0-.116-.584h0Zm6.743-2.769a.3.3,0,0,0-.114.022l-3.371,1.384a.3.3,0,0,0,.231.562l3.371-1.384a.3.3,0,0,0-.116-.584Zm6.743-2.769a.3.3,0,0,0-.114.022l-1.172.482-.009,0-.009,0-2.185.9a.3.3,0,0,0,.234.56l3.371-1.384a.3.3,0,0,0-.116-.584h0Zm6.711-2.918a.313.313,0,0,0-.144.036q-.446.238-.9.463h0l-.019.01h0l-.017.009,0,0a.068.068,0,0,0-.015.009l-.005,0-.015.007s-.005,0-.005,0l-.014.007-.007,0a.042.042,0,0,0-.012.007.015.015,0,0,0-.009.005l-.012.005s-.007,0-.01.005-.007,0-.01.005-.007,0-.01.005-.007,0-.01.005l-.012.005-.007,0-.014.007-.007,0-.015.007a.008.008,0,0,0-.005,0l-.017.009s0,0,0,0l-.017.009h0l-.019.009h0l-.019.009h0q-.7.336-1.437.636h0l-.651.267a.3.3,0,0,0,.231.562l.651-.267a29.639,29.639,0,0,0,2.716-1.28.3.3,0,0,0-.143-.572h0Zm5.981-4.264a.309.309,0,0,0-.207.08c-.017.017-.036.032-.053.05h0l-.015.015h0l-.044.041-.005.005-.012.01-.007.005-.012.01-.007.007c-.007.005-.012.012-.019.017l-.009.009-.01.009s-.007.007-.01.009l-.009.009a.1.1,0,0,1-.014.012s0,0-.005.005-.012.012-.019.017l-.005.005c-.005,0-.009.009-.014.012l-.005.005-.015.014s0,0-.005,0l-.019.017h0a.17.17,0,0,0-.019.017s0,0,0,0l-.017.015,0,0-.041.036h0a.187.187,0,0,0-.019.017l0,0c-.021.019-.041.038-.062.055h0l-.063.056h0l-.02.019h0l-.063.056h0c-.05.044-.1.087-.15.13h0l-.065.055h0c-.022.019-.043.036-.063.055h0l-.02.017h0l-.043.036h0a.181.181,0,0,0-.021.017l0,0-.063.053,0,0-.019.015,0,0-.041.034-.005,0a.108.108,0,0,0-.015.014s0,0-.005,0l-.019.015h0a.181.181,0,0,0-.021.017s0,0-.005,0l-.015.014s0,0-.005.005l-.015.012s0,0-.005.005l-.019.015s0,0,0,0a.1.1,0,0,1-.015.012s-.005,0-.007.007l-.012.01a.03.03,0,0,0-.009.007l-.015.012s0,0-.005,0l-.019.015s-.005,0-.007.007l-.012.01s-.005.005-.009.007l-.012.01a.03.03,0,0,0-.009.007l-.019.015s-.005.005-.009.007l-.01.009-.01.009-.01.009-.01.009-.01.009c-.005.005-.012.009-.017.014a.022.022,0,0,1-.01.007l-.01.009s-.005.005-.009.007a.031.031,0,0,1-.012.009.03.03,0,0,0-.009.007l-.024.019s0,0-.005,0l-.012.01-.007.005-.012.01-.007.005-.012.01h0l-.029.024-.007.005-.014.01-.007.005-.014.01,0,0c-.01.009-.02.015-.029.024l0,0-.014.01-.005.005-.014.01-.005,0-.046.036s0,0-.005,0l-.014.01-.005.005-.014.01h0l-.031.026s0,0,0,0l-.014.01s0,0-.005,0l-.014.01s0,0,0,0l-.046.036s0,0-.005.005l-.014.01s0,0-.005.005l-.044.034s0,0-.005.005l-.014.01s-.005,0-.007.005l-.014.01s0,0-.005,0a.294.294,0,0,0-.024.019s-.005,0-.007.005l-.012.009-.009.005-.012.009s-.005.005-.009.007-.012.009-.017.014l-.012.009-.01.009a.036.036,0,0,1-.01.007l-.01.009-.01.009-.01.007-.019.014-.007.005-.014.01a.03.03,0,0,0-.009.007l-.014.01-.009.005-.017.012,0,0-.02.015s-.005,0-.007.005a.092.092,0,0,0-.015.012s-.005,0-.007.005-.012.009-.017.014l0,0-.022.015h0l-.021.015,0,0-.021.015h0c-.123.091-.248.181-.372.27a.3.3,0,0,0,.354.494A28.83,28.83,0,0,0,365.35,94a.3.3,0,0,0-.207-.526h0Zm4.7-5.645a.3.3,0,0,0-.256.14,28.654,28.654,0,0,1-1.741,2.441l0,0-.038.048v0a.087.087,0,0,1-.012.014s0,0,0,.005l-.01.014s0,0,0,0l-.021.026a.023.023,0,0,0-.005.007.031.031,0,0,0-.009.012s-.005.005-.007.009l-.009.01-.009.01a.089.089,0,0,1-.012.014l-.01.014s-.005.005-.007.009l-.01.012-.005.007c-.005.005-.009.012-.014.017a.005.005,0,0,1,0,0l-.017.02,0,0a.153.153,0,0,1-.014.017l0,0c-.06.073-.12.147-.181.22a.305.305,0,0,0,.039.427.3.3,0,0,0,.195.07.3.3,0,0,0,.234-.109,29.3,29.3,0,0,0,2.194-3,.3.3,0,0,0-.255-.466h0Zm3.13-6.646a.3.3,0,0,0-.289.208q-.269.828-.586,1.637h0c-.007.017-.014.034-.02.053h0l-.01.026v0l-.02.051h0l-.01.024v0l-.02.051h0l-.01.024v0l-.01.024h0l-.01.026v0c0,.007-.005.015-.009.021a.006.006,0,0,1,0,.005c0,.007-.005.014-.009.022v0l-.01.024a.008.008,0,0,1,0,.005.2.2,0,0,1-.009.019.013.013,0,0,1,0,.007c0,.007-.005.014-.009.02v0l-.01.024a.006.006,0,0,1,0,.005c0,.005-.005.012-.007.019s0,.005,0,.009l-.007.017a.013.013,0,0,1,0,.007c0,.009-.007.014-.01.022a.013.013,0,0,1,0,.007c0,.005-.005.01-.007.015s0,.007,0,.009-.005.01-.007.015,0,.005,0,.009a.118.118,0,0,0-.009.022.013.013,0,0,1,0,.009l-.005.014s0,.007-.005.01l-.005.012s0,.007-.005.01-.005.014-.009.021a.036.036,0,0,1-.005.012s0,.007-.005.01l-.005.014s0,.007,0,.01l-.005.014a.008.008,0,0,1,0,.005.246.246,0,0,1-.014.031.013.013,0,0,1,0,.007c0,.005-.005.01-.007.015s0,.005,0,.005l-.022.053v0l-.007.017v0c-.126.292-.256.583-.393.87a.3.3,0,0,0,.145.4.288.288,0,0,0,.13.029.3.3,0,0,0,.275-.174,29.625,29.625,0,0,0,1.368-3.458.3.3,0,0,0-.195-.383.3.3,0,0,0-.094-.015h0Zm1.36-7.22a.3.3,0,0,0-.3.285q-.018.292-.041.584v.031c0,.017,0,.036-.005.053v.048a.113.113,0,0,1,0,.024v.062a.129.129,0,0,1,0,.026h0a.129.129,0,0,1,0,.026v.005a.113.113,0,0,1,0,.024v0l-.005.056h0q-.123,1.351-.374,2.677a.3.3,0,0,0,.243.352.314.314,0,0,0,.056.005.307.307,0,0,0,.3-.248,29.213,29.213,0,0,0,.454-3.692.3.3,0,0,0-.285-.321h-.019Zm-.513-7.329a.238.238,0,0,0-.06.007.3.3,0,0,0-.237.357v.005a.061.061,0,0,0,0,.017v.009a.12.12,0,0,0,.005.024v.007a.073.073,0,0,0,0,.019.022.022,0,0,0,0,.01.05.05,0,0,0,0,.015.022.022,0,0,0,0,.01.061.061,0,0,0,0,.017.015.015,0,0,0,0,.009.152.152,0,0,0,.005.024.029.029,0,0,0,0,.012.04.04,0,0,0,0,.014.029.029,0,0,0,0,.012.021.021,0,0,0,0,.014v.012l.005.014c0,.007,0,.014,0,.02a.025.025,0,0,0,0,.012.038.038,0,0,0,0,.014s0,.009,0,.012a.038.038,0,0,0,0,.014.033.033,0,0,0,0,.012l.005.029v.007a.05.05,0,0,0,0,.015.013.013,0,0,0,0,.009.05.05,0,0,0,0,.015v.007c0,.019.007.038.01.058v.005a.073.073,0,0,0,0,.019V67.5a.071.071,0,0,0,0,.019h0c0,.022.007.043.012.065v0a.086.086,0,0,0,0,.021v0l.015.085h0q.172.974.272,1.946v0a.083.083,0,0,0,0,.021h0c0,.022,0,.043.007.063v.005a.058.058,0,0,0,0,.017v.009l.005.053v.155a.127.127,0,0,0,0,.026v0a.1.1,0,0,0,0,.022v.007a.105.105,0,0,0,0,.022v.005c0,.019,0,.036.005.055h0a.129.129,0,0,0,0,.026v0c.014.161.026.319.038.48a.3.3,0,0,0,.3.28h.022a.3.3,0,0,0,.282-.325,29.438,29.438,0,0,0-.5-3.687.3.3,0,0,0-.3-.244h0Zm-2.351-6.962a.3.3,0,0,0-.273.434c.062.126.121.253.181.379h0l.01.022a.006.006,0,0,0,0,.005l.01.021a.008.008,0,0,0,0,.005c0,.005.005.012.009.017a.013.013,0,0,0,0,.007.2.2,0,0,0,.009.019s0,.005,0,.009a.051.051,0,0,0,.007.014l.005.014a.051.051,0,0,0,.007.014s0,.007.005.01.005.01.007.015a.1.1,0,0,0,.007.014s0,.005,0,.009l.01.022a.017.017,0,0,1,0,.005.051.051,0,0,0,.007.014.009.009,0,0,0,0,.007l.01.024s0,0,0,.005.014.031.021.044v0l.092.205h0c.019.043.038.085.056.126h0c.012.027.022.051.034.077a.008.008,0,0,0,0,.005l.019.044a.006.006,0,0,0,0,.005c0,.009.007.017.01.024a.006.006,0,0,0,0,.005.035.035,0,0,0,.007.014h0l.012.027a.009.009,0,0,0,0,.007l.009.019s0,.007.005.01l.005.012s0,.007,0,.01l.009.019s0,.007.005.01a.036.036,0,0,0,.005.012l.007.017s0,.007.005.01a.083.083,0,0,0,.005.012s0,.005,0,.009l.009.019s0,.005,0,.009l.007.017s0,.007.005.01.005.01.007.015,0,.005,0,.009.005.014.009.021a.013.013,0,0,0,0,.007c0,.007.005.012.007.019s0,0,0,0,.005.014.009.021a.029.029,0,0,0,0,.009c0,.007.005.014.009.021a.006.006,0,0,0,0,.005c0,.007.005.012.007.019a.006.006,0,0,0,0,.005c0,.007.005.014.009.022a.006.006,0,0,0,0,.005.119.119,0,0,1,.009.022h0s.007.017.01.024,0,.005,0,.009.005.01.007.015,0,.007,0,.01a.061.061,0,0,0,.007.015s0,.005,0,.009a.116.116,0,0,1,.009.022s0,.005,0,.009l.007.017s0,.007,0,.01a.117.117,0,0,0,.005.014s0,.007.005.01a.161.161,0,0,1,.005.015s0,.007,0,.01.005.014.009.022,0,.007.005.012a.118.118,0,0,0,.005.014s0,.007.005.01l.005.014s0,.007.005.012a.118.118,0,0,0,.005.014s0,.007,0,.01a.118.118,0,0,1,.009.022.024.024,0,0,0,0,.01.061.061,0,0,0,.007.015s0,.007,0,.01l.005.014s0,.007,0,.01.005.01.007.015a.013.013,0,0,0,0,.009.119.119,0,0,1,.009.022s0,.007,0,.01l.005.014s0,.007,0,.01a.118.118,0,0,0,.005.014s0,.007,0,.01.005.014.007.019a.008.008,0,0,0,0,.005.134.134,0,0,1,.009.024s0,.005,0,.009l.007.017s0,.005,0,.009a.17.17,0,0,0,.007.017.013.013,0,0,0,0,.007.134.134,0,0,1,.009.024h0l.01.026a.01.01,0,0,0,0,.007c0,.007.005.014.007.019a.013.013,0,0,0,0,.007c0,.007.005.014.009.021a.008.008,0,0,0,0,.005c.007.017.012.034.019.051a.006.006,0,0,0,0,.005c0,.007.005.014.007.021a.006.006,0,0,0,0,.005l.009.022v0c.007.017.014.034.019.051a.008.008,0,0,0,0,.005c0,.007.005.014.009.021a.008.008,0,0,0,0,.005.134.134,0,0,1,.009.024h0c.007.017.014.036.019.053v0a.134.134,0,0,1,.009.024v0c.01.027.019.053.029.079v0a.15.15,0,0,1,.009.026h0c.01.027.019.053.029.08v0a.15.15,0,0,1,.009.026h0c.009.026.019.055.029.08v0c0,.009.005.017.009.026h0c.007.019.014.036.019.055h0c0,.009.005.017.009.026v0c0,.009.005.017.009.024h0a.453.453,0,0,0,.019.051.006.006,0,0,0,0,.005c0,.007.005.014.007.021a.01.01,0,0,0,0,.007c0,.007.005.014.007.021v.005c0,.009.005.017.009.026v0c0,.007.005.014.007.021s0,.005,0,.009l.005.015a.024.024,0,0,0,0,.01.054.054,0,0,0,.005.015.024.024,0,0,0,0,.01c0,.007.005.015.007.022s0,.009.005.014,0,.007,0,.012,0,.009.005.014a.024.024,0,0,0,0,.01.013.013,0,0,0,0,.009.3.3,0,0,0,.287.207.322.322,0,0,0,.1-.015.3.3,0,0,0,.191-.384c-.2-.593-.424-1.189-.661-1.77-.231-.564-.483-1.126-.748-1.673a.3.3,0,0,0-.273-.171h0Zm-4.02-6.149a.3.3,0,0,0-.2.073.3.3,0,0,0-.036.425,28.485,28.485,0,0,1,2.187,2.918.3.3,0,0,0,.419.085.305.305,0,0,0,.089-.42,29.134,29.134,0,0,0-2.231-2.978.3.3,0,0,0-.231-.106h0ZM362,48.6a.3.3,0,0,0-.176.55q1,.7,1.948,1.481l0,0a.181.181,0,0,1,.02.017l0,0,.019.015,0,0,.015.014s0,0,.005,0l.017.014s.005,0,.007.007l.015.012s.005.005.009.007l.01.009a.085.085,0,0,1,.014.012s.005.005.009.007l.012.01.01.009.01.009s0,0,0,0l.021.017h0c.236.2.47.4.7.612a.3.3,0,0,0,.407-.451,29.277,29.277,0,0,0-2.913-2.313A.3.3,0,0,0,362,48.6h0Zm-6.516-3.393a.3.3,0,0,0-.108.588q1.309.482,2.568,1.092h0l.024.012h0l.024.012h0l.024.012h0l.022.01a.008.008,0,0,1,.005,0l.022.01a.009.009,0,0,1,.005,0l.022.01s0,0,.005,0l.017.009s0,0,.005,0a.092.092,0,0,0,.019.009.015.015,0,0,1,.009.005l.017.009.01.005.012.005.017.009.007,0,.021.01s0,0,.005,0c.155.077.311.157.465.237a.293.293,0,0,0,.14.034.3.3,0,0,0,.14-.574,29.438,29.438,0,0,0-3.4-1.505.322.322,0,0,0-.106-.019h0Zm-7.16-1.649a.3.3,0,0,0-.032.6c.542.053,1.08.123,1.614.207h0c.009,0,.017,0,.026,0h0a.132.132,0,0,1,.026,0h0c.009,0,.017,0,.024,0h0a.118.118,0,0,1,.022,0h.005a.1.1,0,0,1,.022,0h.009a.086.086,0,0,1,.02,0h.009a.061.061,0,0,1,.017,0,.038.038,0,0,1,.014,0,.047.047,0,0,1,.015,0,.029.029,0,0,1,.012,0,.05.05,0,0,1,.017,0l.012,0a.073.073,0,0,1,.019,0,.029.029,0,0,1,.012,0,.022.022,0,0,1,.01,0,.086.086,0,0,1,.021,0h.009a.1.1,0,0,1,.022,0h.007a.047.047,0,0,1,.015,0h0a.173.173,0,0,1,.029.005h0a.154.154,0,0,1,.027.005h0c.518.089,1.034.193,1.544.311a.312.312,0,0,0,.068.009.3.3,0,0,0,.068-.6,29.393,29.393,0,0,0-3.67-.6h-.031Z" transform="translate(-132.208 -36.195)" fill="#c7c7c7"/>
    <circle id="Ellipse_368" data-name="Ellipse 368" cx="12.183" cy="12.183" r="12.183" transform="matrix(0.003, -1, 1, 0.003, 94.593, 24.132)" fill="#f3f3f3" style="isolation: isolate"/>
    <path id="Path_3590" data-name="Path 3590" d="M553.326,93.922a.3.3,0,0,0,.234-.109,8.93,8.93,0,0,0,1.77-3.454.3.3,0,0,0-.219-.371.3.3,0,0,0-.077-.01.3.3,0,0,0-.294.227c-.038.145-.079.289-.125.431h0s-.005.015-.007.024h0v0h0v0h0v0h0l-.005.017h0v0h0v0h0v0h0c0,.005,0,.009-.005.014h0v0h0v0h0v0h0v0h0a.024.024,0,0,1,0,.01h0v0h0v0h0v0h0v0h0v0h0a.01.01,0,0,1,0,.007h0v0h0v0h0v0h0v0h0v0h0v0h0a.01.01,0,0,1,0,.007h0v0h0v0h0v0h0v0h0v0h0v0h0v0h0v0h0v0h0v0h0v0h0v0h0v0h0v0h0v0h0v0h0v0h0a.008.008,0,0,1,0,.005h0v0h0v0h0v0h0v0h0v0h0v0h0v.005h0v0h0v0h0v0h0v0h0v0h0v0h0a.024.024,0,0,1,0,.01h0v0h0v0h0v0h0v0h0v0h0l0,.009h0v0h0v0h0v0h0v0h0v0h0a.118.118,0,0,1-.005.014h0v0h0v0h0v0h0l-.007.017h0v0h0s-.005.015-.009.024h0a8.267,8.267,0,0,1-1.391,2.4.3.3,0,0,0,.039.427.3.3,0,0,0,.193.07h0Zm1.833-7.081a.21.21,0,0,0,.056-.005.3.3,0,0,0,.243-.354,8.813,8.813,0,0,0-1.531-3.565.3.3,0,0,0-.492.355c.135.188.263.381.383.579h0l.014.022h0v0h0v0h0v0h0l.01.015h0v0h0v0h0v0h0a.1.1,0,0,1,.009.015h0v0h0v0h0v0h0a.1.1,0,0,1,.009.015h0v0h0v0h0v0h0v0h0a.049.049,0,0,0,.007.01h0v0h0v0h0v0h0v0h0v0h0s0,.005.005.007h0v0h0v.005h0v0h0v0h0v0h0v0h0v0h0v0h0v0h0v0h0v0h0v0h0v0h0v0h0v0h0v0h0s0,0,0,.005h0v0h0v0h0v0h0v0h0v0h0v0h0l0,.007h0v0h0v0h0v0h0v0h0v0h0v0h0s0,0,0,.007h0v0h0v0h0v0h0v0h0v0h0l.007.012h0v0h0v0h0v0h0v0h0l.007.012h0v0h0v0h0v0h0v0h0l.01.019h0v0h0v0h0c0,.005.005.01.009.015h0v0h0v0h0a8.436,8.436,0,0,1,.47,1.061h0s.005.015.009.024h0v0h0v0h0l.005.017h0v0h0v0h0v0h0v0h0l.005.014h0v0h0v0h0v0h0v0h0c0,.005,0,.009.005.014h0v0h0v0h0v0h0v0h0v0h0a.01.01,0,0,0,0,.007h0v0h0v0h0v0h0v0h0v0h0v0h0a.01.01,0,0,0,0,.007h0v0h0v0h0v0h0v0h0v0h0v0h0v0h0v0h0v0h0v0h0v0h0v0h0v0h0v0h0v0h0v0h0v0h0v0h0v0h0v0h0v0h0v0h0v0h0v0h0v0h0v0h0v0h0v0h0v0h0v0h0v0h0v0h0v0h0v0h0v0h0v0h0v0h0l0,.012h0v0h0v0h0v0h0v0h0l.005.017h0v0h0v0h0v0h0l.005.019h0v0h0v0h0a8.5,8.5,0,0,1,.231.931.305.305,0,0,0,.3.248h0Zm-4.28-5.933a.308.308,0,0,0,.267-.155.3.3,0,0,0-.118-.413,8.816,8.816,0,0,0-3.723-1.1h-.021a.3.3,0,0,0-.021.606c.2.014.4.034.593.062h0l.026,0h.01l.021,0h.014a.038.038,0,0,1,.014,0h.017a.048.048,0,0,1,.014,0h.2a.023.023,0,0,1,.009,0h.012a.023.023,0,0,1,.009,0h.012l.012,0h.01l.012,0h.012l.015,0h.01l.012,0h.019l.015,0h.014l.015,0h.017l.015,0h.017l.012,0h.017l.019.005h.014l.019.005h.014l.015,0h.015l.015,0h.012l.019.005h.017a.071.071,0,0,0,.015,0h.012a.07.07,0,0,0,.015,0h.017a.07.07,0,0,0,.015,0h.017a.07.07,0,0,0,.015,0h.01c.005,0,.01,0,.014,0h.01l.012,0h.01l.012,0h.009l.017.005h.012l.012,0h.015l.012,0h.01l.012,0h.012l.012,0h.01a.024.024,0,0,1,.01,0h.022a.023.023,0,0,1,.009,0h.062a.01.01,0,0,1,.007,0h.015s.005,0,.007,0h.014a.01.01,0,0,1,.007,0h.017a.01.01,0,0,1,.007,0h.017c.005,0,.009,0,.014.005h.017a.024.024,0,0,1,.01,0h.021l.017.005h.01l.021.007h.007a8.364,8.364,0,0,1,1.165.535.3.3,0,0,0,.147.038h0ZM540.47,82.5a.308.308,0,0,0,.22-.094,8.324,8.324,0,0,1,2.585-1.842h0l.017-.007h.005l.014-.007h.007l.007,0h.05l.007,0h.017l.007,0h.014l.014-.005h.01l.021-.009h0l.178-.072a.3.3,0,0,0-.111-.586.326.326,0,0,0-.111.021,8.985,8.985,0,0,0-3.22,2.165.3.3,0,0,0,.01.429.3.3,0,0,0,.208.084h0Zm-2.308,6.941a.252.252,0,0,0,.036,0,.3.3,0,0,0,.267-.337c-.005-.043-.01-.087-.014-.13h0v0h0v0h0v0h0v-.01h0v0h0v0h0v0h0v0h0v0h0v0h0v-.01h0v0h0v0h0v0h0v0h0v0h0v0h0v0h0v0h0v-.007h0v0h0v0h0v0h0v0h0v-.012h0v0h0v0h0v0h0v-.015h0v0h0a.133.133,0,0,0,0-.022h0c-.009-.106-.015-.214-.021-.321h0v-.024h0v-.019h0v0h0v0h0V88.44h0v0h0v0h0v-.015h0v0h0v0h0v0h0V88.4h0v0h0v0h0v0h0v-.012h0v0h0v0h0v0h0v0h0v-.007h0v0h0v0h0v0h0v0h0v-.007h0v0h0v0h0v0h0v0h0v0h0v-.009h0v0h0v0h0v0h0v0h0v0h0v0h0v0h0v0h0v0h0v0h0v0h0v0h0v0h0v0h0v0h0v0h0v0h0v0h0v0h0v0h0v0h0v0h0v0h0v-.005h0v0h0v0h0v0h0v0h0v-.005h0V88.2h0v0h0v0h0v0h0v0h0v0h0v-.005h0v-.005h0v-.005h0v-.005h0v-.005h0v-.005h0v-.005h0v-.005h0v-.005h0v-.005h0v-.01h0v-.005h0v-.005h0v-.005h0V88.1h0V88.1h0v-.005h0v-.005h0v-.005h0v-.005h0v-.005h0v-.005h0v-.005h0v-.005h0V88.05h0v-.005h0V88.04h0v-.005h0V88.03h0v-.005h0V88.02h0v-.005h0v0h0v-.005h0V88h0V88h0V87.99h0v-.005h0V87.98h0v-.005h0V87.97h0v-.005h0V87.96h0v-.005h0v-.005h0v-.005h0v-.005h0v-.005h0v-.005h0v-.005h0v-.005h0v-.005h0v-.005h0V87.9h0V87.9h0v-.005h0v-.005h0v-.005h0v-.005h0v-.005h0v-.005h0v-.005h0v-.005h0v-.005h0v0h0v-.005h0v-.01h0v-.005h0v-.005h0v-.005h0v-.005h0v-.005h0V87.8h0V87.8h0v-.005h0v-.01h0v-.005h0v-.005h0v-.005h0v-.01h0v-.005h0v-.005h0v-.005h0v-.005h0v-.005h0v-.005h0v-.005h0v-.005h0V87.71h0v-.005h0V87.7h0v-.005h0V87.69h0v-.005h0V87.68h0v-.005h0v-.005h0v-.005h0v-.005h0v-.005h0v-.005h0v-.005h0v-.005h0v-.005h0v-.005h0v-.005h0v-.005h0v-.005h0v-.005h0V87.6h0V87.6h0v-.005h0v-.005h0v-.005h0v-.005h0v-.01h0v-.005h0v-.005h0v-.005h0v-.01h0v-.005h0v-.005h0v-.005h0v-.01h0V87.51h0v-.005h0V87.5h0v-.01h0v-.005h0V87.48h0v-.005h0v-.01h0v-.005h0v-.005h0v-.005h0v-.01h0v-.005h0v-.005h0v-.005h0v-.01h0V87.4h0V87.4h0v-.01h0v-.01h0v-.005h0v-.01h0v-.01h0v-.005h0v-.01h0v-.01h0v-.005h0v-.01h0V87.3h0V87.3h0v-.01h0v-.01h0V87.27h0v-.01h0v-.01h0a.066.066,0,0,1,0-.015h0v-.01h0v-.005h0v-.01h0V87.2h0a.047.047,0,0,1,0-.015h0v-.01h0a.066.066,0,0,1,0-.015h0v-.01h0a.066.066,0,0,1,0-.015h0v-.01h0a.047.047,0,0,1,0-.015h0V87.1h0a.066.066,0,0,1,0-.015h0v-.01h0a.132.132,0,0,1,0-.026h0v-.01h0a.066.066,0,0,1,0-.015h0a.132.132,0,0,1,0-.026h0a8.09,8.09,0,0,1,.333-1.4.3.3,0,0,0-.193-.384.319.319,0,0,0-.1-.015.3.3,0,0,0-.289.208,8.882,8.882,0,0,0-.453,2.81,8.995,8.995,0,0,0,.061,1.051.3.3,0,0,0,.3.268h0Zm3.87,6.208a.3.3,0,0,0,.166-.559h0s-.005,0-.007-.005h-.009l-.007,0h-.007s0,0-.007,0h0l-.007,0h0s0,0-.007,0h0s0,0-.005,0h-.005s0,0-.005,0h0s0,0-.007,0h0l0,0h-.005s-.005,0-.007-.005h0s0,0,0,0h0s0,0-.007-.005h0l-.005,0h0a.029.029,0,0,1-.008-.007h0l0,0h0s0,0-.005,0h0l-.005,0h-.005a.03.03,0,0,1-.009-.007h-.007s-.005-.005-.009-.007h-.007s-.005-.005-.009-.007H542A.037.037,0,0,1,542,95h-.005l0,0h0S541.983,95,541.98,95h0s-.005,0-.007-.005h0l0,0h-.005s-.005-.005-.008-.007h-.007l-.007-.005h0l0,0h0l0,0h0l0,0h0l0,0h0a.037.037,0,0,1-.008-.007h-.007a.037.037,0,0,1-.008-.007h0l0,0h0l0,0h0l0,0h0l0,0h0l-.01-.007h0l0,0h0l0,0h0l0,0h0l0,0h0l-.01-.007h0l0,0h0l0,0h0l0,0h0l0,0h0l-.01-.007h0l0,0h0l0,0h0l0,0h0l-.012-.009h0l0,0h0l0,0h0l0,0h0l-.014-.012h0l-.019-.015h0s0,0-.005,0h0l-.015-.012h0c-.026-.021-.051-.041-.077-.063h0l0,0h0l0,0h0a8.443,8.443,0,0,1-.964-.935h0a.094.094,0,0,1-.014-.017h0l0,0h0l-.012-.014h0l0,0h0l0,0h0v0h0l-.01-.012h0l0,0h0v0h0a0,0,0,0,0,0,0h0l-.01-.012h0l0,0h0v0h0v0h0l-.01-.012h0v0h0v0h0v0h0v0h0l-.007-.009h0v0h0v0h0v0h0l-.005-.007h0v0h0a.024.024,0,0,1-.005-.007h0v0h0s0,0-.005-.005h0a0,0,0,0,0,0,0h0l0,0h0v0h0v0h0a.005.005,0,0,0,0,0h0l0,0h0v0h0v0h0v0h0v0h0l0,0h0l-.005-.005h0v0h0v0h0v0h0v0h0l0,0h0l-.005-.005h0v0h0v0h0v0h0v0h0l0,0h0s0,0-.005-.005h0a0,0,0,0,0,0,0h0l0,0h0l0,0h0l0,0h0l-.009-.01h0l0,0h0l0,0h0l0,0h0l-.009-.01h0l0,0h0l0,0h0l0,0h0l-.009-.01h0a.005.005,0,0,0,0,0h0a.005.005,0,0,0,0,0h0a8.5,8.5,0,0,1-.53-.752.3.3,0,0,0-.516.323,9.015,9.015,0,0,0,2.72,2.766.308.308,0,0,0,.166.05h0Zm4.673,1.379a8.817,8.817,0,0,0,3.788-.844.3.3,0,0,0-.13-.579.286.286,0,0,0-.128.029,8.332,8.332,0,0,1-1.363.5h0l-.041.01h0l-.027.007h0s-.005,0-.007,0h0l-.027.007h-.01a.09.09,0,0,0-.021.005h-.01l-.021.005h-.014l-.024.005h-.017a.04.04,0,0,0-.014,0h-.014a.091.091,0,0,0-.021.005h-.014a.09.09,0,0,0-.02.005h-.017a.021.021,0,0,0-.01,0h-.055a.04.04,0,0,0-.014,0h-.019a.04.04,0,0,0-.014,0h-.022a.022.022,0,0,0-.01,0h-.021a.04.04,0,0,0-.014,0h-.024a.03.03,0,0,0-.01,0h-.019a.03.03,0,0,0-.01,0h-.021a.022.022,0,0,0-.01,0h-.024a.022.022,0,0,0-.01,0h-.053a.022.022,0,0,0-.01,0h-1.3c-.227-.012-.453-.032-.675-.063a.332.332,0,0,0-.041,0,.3.3,0,0,0-.041.6,9.046,9.046,0,0,0,1.2.08h0Z" transform="translate(-445.887 -65.896)" fill="#c4cfe8"/>
    <path id="Path_3591" data-name="Path 3591" d="M148.336,215.805a7.6,7.6,0,0,1-7.467-6.266l-9.569-53.9a5.471,5.471,0,0,0-5.393-4.52H101.262a7.592,7.592,0,1,1,0-15.184h24.644a20.638,20.638,0,0,1,20.346,17.052l9.569,53.9a7.6,7.6,0,0,1-7.485,8.921Z" transform="translate(-77.674 -112.901)" fill="#c7c7c7" style="isolation: isolate"/>
    <path id="Path_3592" data-name="Path 3592" d="M489.441,446.577,374.67,453.814a17.779,17.779,0,0,1-18.623-14.634L342.237,361.4a17.778,17.778,0,0,1,17.5-20.885h138.79a17.778,17.778,0,0,1,17.595,20.323l-10.21,70.547A17.779,17.779,0,0,1,489.441,446.577Z" transform="translate(-283.544 -282.53)" fill="#a9a9a9" style="isolation: isolate"/>
    <circle id="Ellipse_369" data-name="Ellipse 369" cx="16.695" cy="16.695" r="16.695" transform="translate(89.554 154.178)" fill="#c7c7c7" style="isolation: isolate"/>
    <circle id="Ellipse_370" data-name="Ellipse 370" cx="10.189" cy="10.189" r="10.189" transform="translate(91.839 170.872) rotate(-45)" fill="#a9a9a9" style="isolation: isolate"/>
    <circle id="Ellipse_371" data-name="Ellipse 371" cx="16.695" cy="16.695" r="16.695" transform="translate(173.104 154.178)" fill="#c7c7c7" style="isolation: isolate"/>
    <circle id="Ellipse_372" data-name="Ellipse 372" cx="10.189" cy="10.189" r="10.189" transform="translate(177.537 163.306) rotate(-13.28)" fill="#a9a9a9" style="isolation: isolate"/>
    <path id="Path_3593" data-name="Path 3593" d="M658.236,510h0a5.205,5.205,0,0,1-5.206-5.206V455.456a5.205,5.205,0,0,1,5.206-5.206h0a5.205,5.205,0,0,1,5.206,5.206V504.8A5.205,5.205,0,0,1,658.236,510Z" transform="translate(-541.472 -373.522)" fill="#c7c7c7" style="isolation: isolate"/>
    <rect id="Rectangle_3336" data-name="Rectangle 3336" width="10.411" height="59.754" rx="5.206" transform="translate(140.254 76.728)" fill="#c7c7c7" style="isolation: isolate"/>
    <path id="Path_3594" data-name="Path 3594" d="M994.166,510h0a5.205,5.205,0,0,1-5.206-5.206V455.456a5.205,5.205,0,0,1,5.206-5.206h0a5.205,5.205,0,0,1,5.206,5.206V504.8A5.205,5.205,0,0,1,994.166,510Z" transform="translate(-820.011 -373.522)" fill="#c7c7c7" style="isolation: isolate"/>
    <g id="Group_11309" data-name="Group 11309" transform="translate(193.922 26.43)" style="isolation: isolate">
      <circle id="Ellipse_373" data-name="Ellipse 373" cx="22.953" cy="22.953" r="22.953" transform="translate(0 32.46) rotate(-45)" fill="#c7c7c7"/>
    </g>
    <path id="Path_3595" data-name="Path 3595" d="M1270.464,272.539q2.342-3.488,7.558-3.489t7.558,3.489q2.342,3.488,2.344,9.548c0,4.039-.781,7.293-2.344,9.62s-4.081,3.489-7.558,3.489-6-1.163-7.558-3.489-2.344-5.532-2.344-9.62S1268.9,274.864,1270.464,272.539Zm10.765,4.069a3.638,3.638,0,0,0-6.413,0,15.186,15.186,0,0,0-.776,5.479,23.01,23.01,0,0,0,.282,3.964,5.068,5.068,0,0,0,1.145,2.537,3.851,3.851,0,0,0,5.108,0,5.067,5.067,0,0,0,1.145-2.537,23.024,23.024,0,0,0,.282-3.964,15.174,15.174,0,0,0-.776-5.479Z" transform="translate(-1051.479 -223.278)" fill="#fff"/>
  </g>
</svg>
