<?xml version="1.0" encoding="UTF-8"?>
<svg xmlns="http://www.w3.org/2000/svg" xmlns:xlink="http://www.w3.org/1999/xlink" width="48px" height="36px" viewBox="0 0 47 36" version="1.1">
<g id="surface1">
<path style=" stroke:none;fill-rule:nonzero;fill:rgb(0%,0%,0%);fill-opacity:1;" d="M 28.984375 24.078125 C 29.136719 24.546875 29.242188 25.277344 29.246094 25.953125 C 29.246094 26.628906 29.144531 26.785156 29.039062 27.253906 C 28.992188 27.722656 29.039062 27.929688 28.421875 28.554688 C 27.398438 29.441406 26.371094 29.914062 24.878906 29.917969 C 24.363281 29.917969 23.902344 30.386719 23.238281 30.4375 C 22.054688 30.652344 21.746094 29.921875 20.921875 29.507812 C 20.101562 29.144531 19.328125 29.148438 18.609375 28.421875 C 17.886719 27.640625 18.140625 26.914062 17.675781 25.773438 C 17.109375 24.679688 16.546875 25.148438 16.539062 22.132812 C 16.539062 21.40625 15.921875 21.09375 15.558594 21.664062 C 15.097656 22.238281 15.25 22.710938 14.996094 23.28125 C 14.6875 24.011719 14.332031 24.480469 14.230469 25.257812 C 13.976562 26.25 14.082031 27.601562 14.082031 28.585938 C 14.082031 29.367188 13.058594 30.460938 12.496094 30.414062 C 7.867188 29.640625 8.898438 30.785156 6.582031 30.214844 C 5.398438 29.960938 4.011719 30.792969 2.878906 30.796875 C 2.210938 30.796875 1.230469 30.125 1.027344 29.398438 C 0.664062 27.890625 2.203125 26.84375 1.839844 25.339844 C 1.738281 24.714844 1.476562 24.039062 1.582031 23.566406 C 1.9375 22.164062 1.214844 20.96875 1.570312 19.664062 C 1.929688 18.261719 2.492188 17.117188 2.179688 15.917969 C 2.023438 15.035156 2.125 14.097656 2.019531 13.265625 C 1.914062 12.066406 1.554688 10.921875 1.449219 9.882812 C 1.34375 9.054688 -0.199219 8.433594 0.0546875 6.925781 C 0.257812 5.78125 0.875 5.308594 2.929688 4.734375 C 4.316406 4.367188 5.707031 4.261719 6.167969 4.832031 C 6.734375 5.507812 7.457031 6.441406 7.5625 7.171875 C 7.71875 8.472656 5.972656 8.683594 5.871094 9.515625 C 5.820312 11.023438 6.183594 12.167969 6.289062 13.625 C 6.34375 14.976562 6.914062 16.171875 6.554688 17.578125 C 6.351562 18.253906 6.199219 18.722656 5.992188 19.238281 C 5.738281 20.386719 6 21.789062 6.105469 22.933594 C 6.105469 23.660156 5.847656 24.339844 5.902344 25.070312 C 6.007812 26.265625 7.035156 26.210938 7.859375 26.207031 C 8.527344 26.207031 9.09375 26.726562 9.710938 26.460938 C 10.636719 26.097656 10.171875 24.484375 10.523438 23.445312 C 10.730469 22.71875 11.191406 22.042969 11.449219 21.3125 C 11.914062 20.113281 11.445312 19.542969 11.753906 18.761719 C 12.367188 17.199219 14.320312 17.351562 15.605469 17.296875 C 16.273438 17.191406 15.914062 16.359375 16.011719 15.683594 C 16.0625 14.953125 15.90625 14.070312 16.46875 13.703125 C 18.320312 12.191406 17.855469 10.894531 18.933594 10.164062 C 19.957031 9.484375 20.320312 9.949219 20.882812 9.375 C 21.707031 8.542969 22.835938 8.074219 23.757812 8.070312 C 24.015625 8.070312 24.480469 8.277344 24.941406 8.277344 C 25.507812 8.378906 26.074219 8.167969 26.539062 8.636719 C 27.003906 9.101562 27.464844 9.78125 28.082031 10.246094 C 29.007812 11.183594 29.886719 12.167969 29.886719 13.207031 C 29.886719 14.507812 30.042969 14.925781 30.511719 16.378906 C 30.613281 16.792969 31.796875 16.84375 32.207031 16.375 C 32.925781 15.539062 32.664062 13.773438 33.28125 13.199219 C 33.589844 12.9375 34.050781 12.730469 34.304688 12.261719 C 34.5625 11.898438 34.664062 11.21875 35.023438 10.75 C 35.792969 9.816406 36.972656 8.980469 37.539062 9.078125 C 38.71875 9.335938 39.03125 9.078125 39.59375 8.972656 C 40.519531 8.710938 40.980469 8.347656 42.269531 9.070312 C 43.191406 9.640625 43.347656 10.265625 44.222656 10.941406 C 45.667969 12.082031 46.597656 13.539062 46.339844 15.253906 C 46.140625 16.453125 46.449219 17.492188 46.453125 18.792969 C 46.453125 19.261719 46.605469 19.9375 46.144531 20.300781 C 45.679688 20.664062 44.242188 20.878906 42.546875 20.777344 C 41.722656 20.777344 42.1875 20.207031 40.234375 20.210938 C 39.050781 20.210938 38.949219 20.578125 36.992188 20.425781 C 36.53125 20.425781 35.964844 20.425781 35.964844 21.15625 C 35.964844 21.988281 36.425781 22.195312 36.734375 22.921875 C 37.367188 25 37.675781 24.53125 38.292969 25.097656 C 38.699219 25.433594 39.148438 25.714844 39.628906 25.929688 C 40.351562 26.292969 42.097656 25.925781 42.300781 25.5625 C 43.019531 24.15625 43.222656 24.257812 44.148438 23.683594 C 44.867188 23.214844 45.332031 23.109375 45.640625 23.574219 C 46 24.148438 46.363281 24.613281 46.464844 25.183594 C 46.570312 26.644531 44.777344 29.195312 43.03125 29.460938 C 42.464844 29.5625 42.003906 30.347656 41.640625 30.347656 C 40.921875 30.398438 40.253906 30.351562 39.6875 30.507812 C 39.070312 30.820312 38.300781 30.351562 37.683594 29.9375 C 35.984375 29.109375 35.367188 28.019531 34.539062 27.082031 C 33.972656 26.410156 33.613281 25.679688 33.304688 24.902344 C 32.945312 24.191406 32.667969 23.441406 32.476562 22.667969 C 32.371094 21.992188 32.476562 21.523438 32.265625 20.691406 C 32.113281 19.597656 31.339844 20.589844 30.054688 20.59375 C 27.382812 20.597656 27.175781 19.765625 25.632812 20.601562 C 25.070312 20.914062 24.042969 21.070312 23.425781 21.023438 C 22.753906 20.917969 21.828125 20.558594 21.160156 20.457031 C 19.875 20.25 20.339844 21.757812 20.550781 23.058594 C 20.652344 23.839844 21.273438 24.355469 21.375 24.824219 C 21.585938 25.707031 22.664062 25.96875 23.6875 26.070312 C 24.355469 26.171875 24.976562 26.070312 25.4375 25.699219 C 26.257812 25.023438 26.921875 24.085938 27.746094 23.40625 C 28.207031 23.042969 28.773438 23.613281 28.980469 24.078125 M 37.648438 14.488281 C 37.363281 14.855469 37.054688 15.207031 36.722656 15.53125 C 36.519531 15.742188 36.367188 16.3125 37.1875 16.46875 C 38.011719 16.675781 39.398438 16.929688 40.527344 16.929688 C 41.609375 16.929688 42.894531 17.027344 42.273438 15.414062 C 41.601562 13.859375 41.503906 14.117188 40.984375 13.546875 C 40.574219 13.183594 39.851562 13.03125 38.824219 13.1875 C 38.105469 13.292969 37.898438 14.125 37.644531 14.492188 M 22.527344 12.859375 C 22.167969 13.121094 21.808594 13.328125 21.554688 13.695312 C 21.246094 14.058594 21.347656 14.476562 20.992188 14.734375 C 20.632812 14.992188 20.324219 15.414062 20.066406 16.039062 C 19.757812 16.714844 20.628906 16.507812 21.347656 16.507812 C 22.070312 16.507812 22.945312 16.710938 23.5625 16.8125 C 24.230469 16.863281 24.382812 17.175781 24.847656 17.171875 C 25.308594 17.171875 25.617188 16.859375 26.082031 16.703125 C 26.542969 16.496094 26.699219 16.128906 26.542969 15.769531 C 26.335938 15.402344 25.773438 14.9375 25.714844 14.257812 C 25.613281 13.585938 25.40625 13.425781 24.945312 12.960938 C 24.484375 12.496094 23.917969 12.128906 23.558594 12.128906 C 22.941406 12.128906 22.941406 12.597656 22.53125 12.859375 "/>
<path style=" stroke:none;fill-rule:nonzero;fill:rgb(0%,0%,0%);fill-opacity:1;" d="M 43.699219 5.882812 C 43.699219 6.796875 44.429688 7.539062 45.335938 7.539062 C 46.238281 7.539062 46.972656 6.796875 46.972656 5.882812 C 46.972656 4.964844 46.238281 4.222656 45.335938 4.226562 C 44.429688 4.226562 43.699219 4.964844 43.699219 5.882812 M 43.886719 5.882812 C 43.886719 5.070312 44.535156 4.414062 45.335938 4.414062 C 46.136719 4.414062 46.785156 5.070312 46.785156 5.882812 C 46.785156 6.691406 46.136719 7.347656 45.335938 7.347656 C 44.535156 7.347656 43.886719 6.691406 43.886719 5.882812 "/>
<path style=" stroke:none;fill-rule:nonzero;fill:rgb(0%,0%,0%);fill-opacity:1;" d="M 45.949219 6.265625 C 45.949219 5.984375 45.886719 5.945312 45.765625 5.890625 L 45.710938 5.867188 L 45.769531 5.847656 C 45.910156 5.792969 46 5.648438 45.992188 5.496094 C 45.988281 5.386719 45.949219 5.277344 45.875 5.199219 C 45.777344 5.113281 45.652344 5.066406 45.523438 5.074219 L 44.761719 5.074219 C 44.761719 5.121094 44.761719 6.550781 44.761719 6.597656 L 45.035156 6.597656 C 45.035156 6.554688 45.035156 5.984375 45.035156 5.984375 L 45.394531 5.984375 C 45.472656 5.972656 45.550781 5.992188 45.613281 6.042969 C 45.667969 6.09375 45.667969 6.179688 45.667969 6.304688 C 45.667969 6.402344 45.675781 6.5 45.703125 6.597656 L 46.019531 6.597656 L 46.019531 6.589844 C 45.953125 6.554688 45.949219 6.488281 45.949219 6.265625 M 45.65625 5.699219 C 45.59375 5.75 45.519531 5.773438 45.441406 5.765625 L 45.035156 5.765625 L 45.035156 5.296875 L 45.464844 5.296875 C 45.535156 5.292969 45.605469 5.316406 45.65625 5.359375 C 45.699219 5.40625 45.71875 5.464844 45.714844 5.523438 C 45.722656 5.585938 45.699219 5.648438 45.660156 5.695312 "/>
</g>
</svg>
