<svg xmlns="http://www.w3.org/2000/svg" width="20.915" height="14.706" viewBox="0 0 20.915 14.706">
  <g id="Group_486" data-name="Group 486" transform="translate(-6.759 -10.236)">
    <path id="Icon_awesome-youtube" data-name="Icon awesome-youtube" d="M21.528,6.8A2.628,2.628,0,0,0,19.679,4.94c-1.631-.44-8.171-.44-8.171-.44s-6.54,0-8.171.44A2.628,2.628,0,0,0,1.487,6.8a27.568,27.568,0,0,0-.437,5.067,27.568,27.568,0,0,0,.437,5.067,2.589,2.589,0,0,0,1.849,1.831c1.631.44,8.171.44,8.171.44s6.54,0,8.171-.44a2.589,2.589,0,0,0,1.849-1.831,27.568,27.568,0,0,0,.437-5.067A27.568,27.568,0,0,0,21.528,6.8ZM9.368,14.977V8.758l5.466,3.11-5.466,3.11Z" transform="translate(5.709 5.736)"/>
  </g>
</svg>
