<svg xmlns="http://www.w3.org/2000/svg" width="16.899" height="16.896" viewBox="0 0 16.899 16.896">
  <g id="Group_488" data-name="Group 488" transform="translate(-8.489 -8.722)">
    <path id="Icon_awesome-instagram" data-name="Icon awesome-instagram" d="M8.447,6.354a4.332,4.332,0,1,0,4.332,4.332A4.325,4.325,0,0,0,8.447,6.354Zm0,7.148a2.816,2.816,0,1,1,2.816-2.816A2.821,2.821,0,0,1,8.447,13.5Zm5.52-7.325a1.01,1.01,0,1,1-1.01-1.01A1.008,1.008,0,0,1,13.966,6.177ZM16.835,7.2a5,5,0,0,0-1.365-3.54A5.033,5.033,0,0,0,11.93,2.3c-1.395-.079-5.576-.079-6.971,0a5.026,5.026,0,0,0-3.54,1.361A5.017,5.017,0,0,0,.054,7.2c-.079,1.395-.079,5.576,0,6.971a5,5,0,0,0,1.365,3.54,5.039,5.039,0,0,0,3.54,1.365c1.395.079,5.576.079,6.971,0a5,5,0,0,0,3.54-1.365,5.033,5.033,0,0,0,1.365-3.54c.079-1.395.079-5.572,0-6.967Zm-1.8,8.464a2.851,2.851,0,0,1-1.606,1.606c-1.112.441-3.751.339-4.98.339s-3.872.1-4.98-.339A2.851,2.851,0,0,1,1.86,15.666c-.441-1.112-.339-3.751-.339-4.98s-.1-3.872.339-4.98A2.851,2.851,0,0,1,3.466,4.1c1.112-.441,3.751-.339,4.98-.339s3.872-.1,4.98.339a2.851,2.851,0,0,1,1.606,1.606c.441,1.112.339,3.751.339,4.98S15.474,14.558,15.033,15.666Z" transform="translate(8.494 6.484)"/>
  </g>
</svg>
