<svg xmlns="http://www.w3.org/2000/svg" width="30" height="30" viewBox="0 0 30 30">
  <g id="Group_10365" data-name="Group 10365" transform="translate(-9619 22313)">
    <g id="Group_10365-2" data-name="Group 10365" transform="translate(-740 -365)">
      <g id="noun-store-location-4667875" transform="translate(10343.583 -21953.344)">
        <path id="Path_1830" data-name="Path 1830" d="M30.451,33.436a23.989,23.989,0,0,1-5.807-.631C22.906,32.35,22,31.728,22,30.961c0-.573.5-1.068,1.494-1.473a13.885,13.885,0,0,1,3.393-.8.362.362,0,1,1,.094.718,13.23,13.23,0,0,0-3.205.743c-.77.3-1.041.622-1.041.8s.441.712,2.095,1.144a23.241,23.241,0,0,0,5.623.6,23.241,23.241,0,0,0,5.623-.6c1.654-.432,2.095-.924,2.095-1.144s-.272-.489-1.041-.8a13.229,13.229,0,0,0-3.205-.73.368.368,0,0,1,.094-.73,13.885,13.885,0,0,1,3.378.8c.993.4,1.509.906,1.509,1.473,0,.767-.887,1.388-2.635,1.844a23.989,23.989,0,0,1-5.816.631Zm0-2.535a.368.368,0,0,1-.232-.085,29.65,29.65,0,0,1-3.972-4.268,23.193,23.193,0,0,1-2.738-4.5,13.64,13.64,0,0,1-1.316-5.433v-.124a8.258,8.258,0,1,1,16.516,0v.124a13.582,13.582,0,0,1-1.316,5.433,23.024,23.024,0,0,1-2.75,4.528,29.648,29.648,0,0,1-3.96,4.244.374.374,0,0,1-.232.085Zm0-21.937a7.546,7.546,0,0,0-7.546,7.546v.1a12.909,12.909,0,0,0,1.238,5.131,22.611,22.611,0,0,0,2.686,4.365,30.5,30.5,0,0,0,3.622,3.948,30.512,30.512,0,0,0,3.622-3.96,22.532,22.532,0,0,0,2.677-4.352A12.928,12.928,0,0,0,38,16.612V16.5a7.546,7.546,0,0,0-7.546-7.546Z" transform="translate(0)" stroke="#000" stroke-width="0.4"/>
        <g id="noun-store-6004063" transform="translate(25.5 12.964)">
          <g id="Group_4931" data-name="Group 4931">
            <g id="Group_4930" data-name="Group 4930" transform="translate(0 0)">
              <path id="Path_3552" data-name="Path 3552" d="M155.584,147.287a1.276,1.276,0,0,0-1.26-1.117h-6.212a1.276,1.276,0,0,0-1.26,1.112l-.152,1.255a1.733,1.733,0,0,0,.589,1.3v4.145a1.27,1.27,0,0,0,1.27,1.27h5.318a1.27,1.27,0,0,0,1.27-1.27v-4.145a1.731,1.731,0,0,0,.589-1.3Zm-3.347,7.457h-2.032v-2.072a.761.761,0,0,1,.762-.762h.508a.764.764,0,0,1,.762.762Zm2.4-.762a.764.764,0,0,1-.762.762h-1.133v-2.072a1.27,1.27,0,0,0-1.27-1.27h-.508a1.27,1.27,0,0,0-1.27,1.27v2.072h-1.138a.764.764,0,0,1-.762-.762v-3.845a1.636,1.636,0,0,0,.63.122,1.7,1.7,0,0,0,1.31-.6.122.122,0,0,1,.172,0,1.7,1.7,0,0,0,1.31.6,1.724,1.724,0,0,0,1.316-.6.11.11,0,0,1,.081-.035.122.122,0,0,1,.086.035,1.7,1.7,0,0,0,1.31.6,1.61,1.61,0,0,0,.625-.122v3.845Zm-.625-4.231a1.212,1.212,0,0,1-.925-.422.61.61,0,0,0-.467-.218h0a.606.606,0,0,0-.467.213,1.258,1.258,0,0,1-1.854,0,.629.629,0,0,0-.945,0,1.222,1.222,0,0,1-2.149-.757l.152-1.219a.77.77,0,0,1,.757-.67h6.212a.762.762,0,0,1,.757.67l.147,1.2A1.214,1.214,0,0,1,154.014,149.751Z" transform="translate(-146.267 -145.735)" stroke="#000" stroke-width="0.4"/>
            </g>
          </g>
        </g>
      </g>
      <g id="Group_10362" data-name="Group 10362" transform="translate(9286 -20697)">
        <g id="Group_4704" data-name="Group 4704" transform="translate(-200.748 -1298.748)">
          <g id="Group_4549" data-name="Group 4549" transform="translate(1273.748 47.748)">
            <rect id="Rectangle_2204" data-name="Rectangle 2204" width="30" height="30" transform="translate(0 0)" fill="none"/>
          </g>
        </g>
      </g>
    </g>
  </g>
</svg>
